<svg width="120" height="120" viewBox="0 0 120 120" fill="none" xmlns="http://www.w3.org/2000/svg">
<g clip-path="url(#clip0)">
<path d="M46.778 33.3156V26.7872C46.778 26.2259 46.9474 25.6777 47.2642 25.2141L56.5308 11.6529C58.852 8.25588 57.9799 3.62069 54.5829 1.29947C51.1861 -1.02174 46.5507 -0.149626 44.2294 3.24737L33.8775 18.3972C32.5758 20.3021 31.8794 22.5558 31.8794 24.863V45.7846V63.4315L48.0654 52.4369L46.778 33.3156Z" fill="#FFEFE7"/>
<path d="M65.8094 54.9869L70.0686 33.2564L53.3961 47.2262L53.4082 47.3034C55.1649 47.0307 57.0134 47.5037 58.4517 48.7272L65.8094 54.9869ZM75.5609 21.7578L75.7443 21.6805C76.5841 21.0579 77.5059 20.5367 78.4881 20.1337C79.4702 19.7307 80.5127 19.4484 81.5987 19.2987C85.3946 18.7775 88.6957 21.9074 88.3796 25.725L86.6373 46.7846C86.5625 47.7088 86.7338 48.6331 87.1368 49.468L90.3608 56.1332C94.6442 64.9919 94.789 75.2912 90.759 84.2681L80.8747 106.279V117.351C80.8747 118.817 79.6843 120.004 78.2183 120L38.7748 119.896C37.3143 119.892 36.1324 118.707 36.1324 117.246V108.173L28.2727 98.2934C24.9329 94.0969 22.9252 89.0003 22.5053 83.6552L20.8523 62.6535C20.4975 58.1578 22.3436 53.7659 25.8041 50.8701L63.9223 18.9681C65.3171 17.7978 67.0159 17.2283 68.7052 17.2283C70.8312 17.2283 72.9451 18.1332 74.4171 19.8924C74.8997 20.4691 75.281 21.099 75.5609 21.7578Z" fill="#FFEFE7"/>
<path d="M79.9059 19.6482C79.4221 19.7826 78.9471 19.9452 78.4879 20.1337C77.5058 20.5367 76.5839 21.0579 75.7442 21.6805L75.5608 21.7578C75.2808 21.099 74.8996 20.4691 74.4169 19.8924C74.0458 19.4488 73.6338 19.0601 73.1913 18.7261L69.857 33.4338L70.0686 33.2564L68.592 40.7903L76.5941 34.0854C80.8926 30.4811 82.0949 24.531 79.9059 19.6482Z" fill="#FFE0D1"/>
<path d="M38.6176 46.3951L47.2676 40.5888L46.778 33.3156V28.5961L41.2113 33.255C40.0248 34.248 38.2185 33.4044 38.2185 31.857V26.4036C38.2185 24.0961 38.9149 21.8427 40.2166 19.9375L50.5686 4.7877C51.6856 3.15303 53.3389 2.105 55.1318 1.71431C54.9564 1.56928 54.7742 1.43028 54.5826 1.29925C51.1858 -1.02197 46.5504 -0.149855 44.2292 3.24715L33.8772 18.3969C32.5756 20.3021 31.8792 22.5555 31.8792 24.863V45.7846V46.3949H38.6176V46.3951Z" fill="#FFD1C2"/>
<path d="M74.417 19.8924C77.0594 23.0464 76.6444 27.7448 73.4928 30.3872L53.396 47.2262L53.4081 47.3034C52.2667 47.4772 51.1639 47.9695 50.2396 48.7755L40.5411 57.2167L21.5737 57.0116C22.3894 54.6515 23.8349 52.5183 25.804 50.8701L63.9222 18.9681C65.317 17.7978 67.0159 17.2283 68.7051 17.2283C70.8311 17.2283 72.945 18.1332 74.417 19.8924Z" fill="#FFEFE7"/>
<path d="M49.0613 119.896C47.6009 119.892 46.4189 118.707 46.4189 117.246V112.266C46.4189 109.616 45.5205 107.044 43.8704 104.969L38.5593 98.2934C35.2195 94.097 33.2117 89.0004 32.7918 83.6552L31.1388 62.6535C30.7841 58.1578 32.6302 53.7659 36.0906 50.8701L73.8399 19.277C72.4195 17.9228 70.5669 17.2285 68.7047 17.2285C67.0155 17.2285 65.3166 17.798 63.9218 18.9684L25.8036 50.8703C22.3431 53.7661 20.4971 58.1581 20.8518 62.6538L22.5048 83.6555C22.9247 89.0006 24.9324 94.0972 28.2722 98.2937L36.1319 108.173V117.247C36.1319 118.707 37.3139 119.892 38.7743 119.896H49.0613V119.896Z" fill="#FFE0D1"/>
<path d="M76.7255 74.0504C78.427 72.0496 79.364 69.5035 79.364 66.8814C79.364 63.6265 77.9426 60.5522 75.4663 58.4486L66.6078 50.9133L65.8093 54.9872L58.4516 48.7274C57.44 47.8669 56.2252 47.3792 54.9824 47.2595V78.2305C54.9824 83.3452 57.2274 88.2024 61.1234 91.5163C63.1225 93.2167 65.6679 94.1532 68.2903 94.1532C71.5454 94.1532 74.6202 92.7318 76.7257 90.2547C78.427 88.2538 79.364 85.7086 79.364 83.0884C79.364 79.9981 78.0802 77.0709 75.8285 74.9787C76.1427 74.6863 76.4453 74.38 76.7255 74.0504Z" fill="#FFE0D1"/>
<path d="M75.7441 66.8814C75.7441 68.5875 75.1602 70.3032 73.9681 71.7053C72.7735 73.1097 71.1712 73.9616 69.482 74.2343L69.4434 74.2801L58.4515 64.9315C56.0793 62.9141 52.5875 62.9334 50.2395 64.9798L40.541 73.421V57.2167L50.2395 48.7755C51.1637 47.9695 52.2665 47.4772 53.408 47.3034C55.1647 47.0307 57.0132 47.5037 58.4515 48.7272L65.8092 54.9869L73.121 61.2056C74.8537 62.6776 75.7441 64.7723 75.7441 66.8814Z" fill="#FFEFE7"/>
<path d="M73.9106 71.7668C73.4881 71.005 72.9263 70.3039 72.2231 69.7067L64.9113 63.488L57.5535 57.2283C56.1153 56.0048 54.2668 55.5318 52.51 55.8045C51.3686 55.9782 50.2658 56.4705 49.3416 57.2765L42.2889 63.4149C41.1783 64.3813 40.541 65.7815 40.541 67.2535V73.421L50.2395 64.9798C52.5875 62.9334 56.0793 62.9141 58.4515 64.9315L69.4434 74.2801L69.482 74.2343C71.1452 73.9659 72.7224 73.1331 73.9106 71.7668Z" fill="#FFE0D1"/>
<path d="M75.7441 83.0881C75.7441 84.7942 75.1602 86.5076 73.9681 87.9096C71.3039 91.0443 66.6007 91.4232 63.4684 88.759L54.3877 81.0345L51.6922 83.73L40.541 73.421L50.2395 64.9798C52.5875 62.9335 56.0793 62.9142 58.4515 64.9316L73.121 77.41C74.8537 78.8844 75.7441 80.979 75.7441 83.0881Z" fill="#FFEFE7"/>
<path d="M84.3491 11.3766C84.0511 11.3766 83.7492 11.303 83.47 11.1478C82.5969 10.6613 82.2832 9.55922 82.7695 8.6859L86.4884 2.00821C86.9749 1.13513 88.077 0.821422 88.9503 1.30767C89.8234 1.79417 90.1371 2.89625 89.6508 3.76958L85.9319 10.4473C85.6011 11.0414 84.9845 11.3766 84.3491 11.3766Z" fill="#FBE88C"/>
<path d="M90.8844 17.3369C90.2785 17.3369 89.6865 17.0326 89.3441 16.4797C88.8176 15.63 89.0799 14.5142 89.9298 13.9881L96.4279 9.9637C97.2781 9.43739 98.3934 9.6997 98.9195 10.5494C99.446 11.399 99.1837 12.5149 98.3338 13.041L91.8357 17.0654C91.5389 17.2493 91.2097 17.3369 90.8844 17.3369Z" fill="#FBE88C"/>
</g>
<defs>
<clipPath id="clip0">
<rect width="120" height="120" fill="white"/>
</clipPath>
</defs>
</svg>
