<svg width="50" height="50" viewBox="0 0 50 50" fill="none" xmlns="http://www.w3.org/2000/svg">
<path d="M15.0917 30.7678L8.2771 45.95C8.04204 46.4735 8.46831 47.0533 9.03804 46.985L12.8562 46.5286L15.0566 49.6839C15.3847 50.1545 16.1005 50.0873 16.3354 49.5639L23.2345 34.193L15.0917 30.7678Z" fill="#FF507D"/>
<path d="M34.9098 30.7678L41.7244 45.95C41.9594 46.4735 41.5332 47.0533 40.9634 46.985L37.1453 46.5286L34.9448 49.6839C34.6167 50.1545 33.9008 50.0873 33.666 49.5639L26.7668 34.193L34.9098 30.7678Z" fill="#D23C69"/>
<path d="M41.725 45.9499L36.9298 35.2669L36.7699 34.9106C36.7699 34.9106 35.8198 35.2669 35.1006 36.5917C34.7556 37.2271 34.2218 37.6946 33.8671 37.9575C33.6587 38.1121 33.5858 38.3899 33.6919 38.6268L37.2391 46.5398L40.9639 46.9851C41.5338 47.0532 41.96 46.4735 41.725 45.9499Z" fill="#FF507D"/>
<path d="M15.0917 30.7678L8.2771 45.9499C8.04204 46.4735 8.46831 47.0532 9.03804 46.985L12.7628 46.5397L16.1982 38.8762C16.3803 38.4699 16.8427 38.3013 17.2642 38.4453C17.6444 38.575 18.0464 38.645 18.457 38.645C18.6518 38.645 18.8485 38.6296 19.0412 38.5993L21.1049 38.2746C21.1125 38.2744 21.1196 38.2741 21.1264 38.2741C21.1894 38.2741 21.2256 38.2853 21.2577 38.3048L21.3608 38.3676L23.2345 34.1929L15.0917 30.7678Z" fill="#D23C69"/>
<path d="M43.7969 20.1261L42.7076 21.9127C42.4619 22.3157 42.3672 22.7931 42.4405 23.2595L42.7652 25.3232C42.8814 26.0621 42.574 26.804 41.969 27.2439L40.2803 28.4723C39.898 28.7504 39.627 29.1553 39.5159 29.6147L39.0242 31.6466C38.8485 32.3723 38.282 32.9388 37.5563 33.1144L35.5246 33.606C35.0651 33.7171 34.66 33.9882 34.382 34.3704L33.1541 36.0586C32.714 36.6636 31.9721 36.971 31.2332 36.8548L29.1702 36.5301C28.7038 36.4566 28.2264 36.5513 27.8232 36.7972L26.0369 37.8864C25.4 38.2748 24.5994 38.2748 23.9626 37.8864L22.176 36.7971C21.7729 36.5514 21.2956 36.4566 20.8292 36.53L18.7654 36.8547C18.0265 36.9709 17.2846 36.6635 16.8447 36.0585L15.6164 34.3698C15.3383 33.9875 14.9334 33.7165 14.4739 33.6054L12.4421 33.1137C11.7164 32.938 11.1499 32.3715 10.9743 31.6458L10.4827 29.6141C10.3716 29.1546 10.1005 28.7495 9.71824 28.4715L8.02996 27.2434C7.42498 26.8033 7.11755 26.0614 7.23376 25.3225L7.55847 23.2595C7.63191 22.7931 7.53728 22.3157 7.29138 21.9125L6.20193 20.1261C5.81355 19.4892 5.81355 18.6886 6.20193 18.0518L7.29128 16.2651C7.53699 15.8621 7.63171 15.3848 7.55837 14.9184L7.23367 12.8546C7.11746 12.1157 7.42488 11.3738 8.02986 10.9339L9.71853 9.70557C10.1009 9.42744 10.3719 9.02256 10.483 8.56308L10.9747 6.53125C11.1504 5.80557 11.7169 5.23906 12.4426 5.06348L14.4743 4.57187C14.9338 4.46074 15.3388 4.18965 15.6169 3.80742L16.8449 2.11924C17.2849 1.51426 18.0268 1.20684 18.7658 1.32305L20.8288 1.64775C21.2952 1.72119 21.7725 1.62656 22.1758 1.38066L23.9621 0.291406C24.599 -0.0969727 25.3996 -0.0969727 26.0364 0.291406L27.8231 1.38076C28.2261 1.62646 28.7035 1.72119 29.1699 1.64785L31.2337 1.32314C31.9725 1.20693 32.7144 1.51436 33.1544 2.11934L34.3827 3.80801C34.6608 4.19033 35.0657 4.46133 35.5252 4.57246L37.557 5.06416C38.2827 5.23984 38.8492 5.80635 39.0248 6.53203L39.5164 8.56377C39.6275 9.02324 39.8986 9.42832 40.2808 9.70635L41.969 10.9343C42.574 11.3743 42.8814 12.1162 42.7652 12.8552L42.4405 14.9182C42.3671 15.3846 42.4617 15.8619 42.7076 16.2651L43.7968 18.0515C44.1853 18.6887 44.1853 19.4892 43.7969 20.1261Z" fill="#FFC850"/>
<path d="M13.5184 15.1145C13.5184 9.81943 15.5043 4.99013 18.7682 1.32343L18.7661 1.32314C18.0272 1.20673 17.2853 1.51425 16.8453 2.11923L15.6174 3.80742C15.3393 4.18974 14.9343 4.46074 14.4748 4.57187L12.4431 5.06347C11.7174 5.23896 11.1509 5.80556 10.9752 6.53124L10.4835 8.56308C10.3724 9.02255 10.1013 9.42753 9.71907 9.70556L8.0303 10.9339C7.42542 11.3738 7.1179 12.1157 7.23411 12.8546L7.55881 14.9183C7.63225 15.3847 7.53752 15.8619 7.29172 16.265L6.20217 18.0517C5.81379 18.6886 5.81379 19.4892 6.20217 20.126L7.29143 21.9123C7.53733 22.3154 7.63186 22.7929 7.55852 23.2593L7.23381 25.3223C7.11741 26.0612 7.42493 26.8031 8.02991 27.2431L9.71809 28.471C10.1004 28.7491 10.3714 29.1541 10.4825 29.6136L10.9741 31.6453C11.1496 32.371 11.7162 32.9375 12.4419 33.1132L14.4738 33.6049C14.9332 33.716 15.3382 33.9871 15.6162 34.3693L16.8444 36.058C17.2844 36.6629 18.0262 36.9704 18.7651 36.8542L20.8287 36.5295C21.2951 36.456 21.7724 36.5507 22.1756 36.7966L23.9623 37.8859C24.5993 38.2743 25.3998 38.2743 26.0366 37.8859L27.823 36.7967C28.2261 36.5508 28.7035 36.4562 29.1699 36.5296L31.233 36.8543C31.972 36.9706 32.7139 36.6632 33.1538 36.0582L33.3093 35.8444C22.2945 35.3411 13.5184 26.2538 13.5184 15.1145Z" fill="#E1A546"/>
<path d="M25.0015 33.2196C32.8057 33.2196 39.1323 26.893 39.1323 19.0887C39.1323 11.2845 32.8057 4.95789 25.0015 4.95789C17.1972 4.95789 10.8706 11.2845 10.8706 19.0887C10.8706 26.893 17.1972 33.2196 25.0015 33.2196Z" fill="#FFDC64"/>
<path d="M28.2978 25.9943C23.0971 25.1645 18.9238 20.9912 18.094 15.7905C17.8017 13.958 17.9207 12.1912 18.3659 10.5584C18.5856 9.7528 17.6283 9.13678 16.9923 9.6777C14.0271 12.199 12.2658 16.0908 12.7006 20.3787C13.2838 26.1316 17.9566 30.8044 23.7094 31.3876C27.9973 31.8223 31.8892 30.0611 34.4104 27.0959C34.9512 26.4597 34.3353 25.5025 33.5298 25.7222C31.8971 26.1677 30.1303 26.2867 28.2978 25.9943Z" fill="#FFC850"/>
<path d="M24.9993 25.0306L19.8587 27.9081C19.3238 28.2075 18.684 27.7425 18.8034 27.1414L19.9515 21.3631L15.6263 17.3633C15.1763 16.9471 15.4207 16.1948 16.0293 16.1227L21.8796 15.429L24.3471 10.0795C24.6037 9.52297 25.3948 9.52297 25.6515 10.0795L28.119 15.429L33.9693 16.1227C34.5779 16.1948 34.8223 16.9471 34.3723 17.3633L30.0471 21.3631L31.1952 27.1414C31.3146 27.7425 30.6747 28.2075 30.1399 27.9081L24.9993 25.0306Z" fill="white"/>
<path d="M24.9866 9.66541C24.7291 9.67 24.4732 9.80574 24.3471 10.0793L21.8796 15.4289L16.0293 16.1225C15.4207 16.1947 15.1763 16.9469 15.6263 17.3631L19.9515 21.363L18.8034 27.1413C18.684 27.7424 19.3239 28.2074 19.8587 27.908L20.6723 27.4526L22.0515 21.1468C22.1144 20.8591 22.0403 20.5585 21.8509 20.333L20.3899 18.595C20.1432 18.3015 20.2879 17.8511 20.6594 17.7563L22.9915 17.1608C23.3478 17.0698 23.6195 16.7812 23.689 16.4201L24.9866 9.66541Z" fill="#FFFAB4"/>
<path d="M30.9665 27.812L28.1291 24.6593C27.6623 24.1407 26.9015 24.0082 26.2869 24.3386L25 25.0304L30.1406 27.9079C30.4329 28.0716 30.7524 28.0025 30.9665 27.812Z" fill="#FFFAB4"/>
</svg>
