<svg width="85" height="63" viewBox="0 0 85 63" fill="none" xmlns="http://www.w3.org/2000/svg">
<path d="M72.4492 16.3571H54.8982V48.1675H83.6542V33.8496L80.3004 22.2587C79.2895 18.7634 76.088 16.3571 72.4492 16.3571Z" fill="#FF7058"/>
<path d="M79.4558 33.7028L76.4669 23.3709C75.9517 21.5948 74.2996 20.3518 72.4492 20.3518H58.8928V33.7028H79.4558Z" fill="#84DBFF"/>
<path d="M79.4596 33.6974H58.886V20.3464L79.4596 33.6974Z" fill="#CDD6E0"/>
<path d="M79.4558 33.7028L76.4669 23.3709C75.9517 21.5948 74.2996 20.3518 72.4492 20.3518H58.8928L79.4558 33.7028Z" fill="#F2F2F2"/>
<path d="M5.31205 0.387207H49.5862C52.5184 0.387207 54.8982 2.76518 54.8982 5.69926V48.1656H0V5.69926C0 2.76535 2.37797 0.387207 5.31205 0.387207Z" fill="#FFD15C"/>
<path d="M35.9804 0.39624V14.4323L33.9263 12.3784L31.7733 14.5316L29.6219 12.3784L27.4705 14.5316L25.3155 12.3784L23.1359 14.5316L20.9861 12.3784L18.9075 14.4572V0.39624H35.9804Z" fill="#F2F2F2"/>
<path d="M84.9999 48.1638V54.1664H0.00708008V48.1638H8.87821C10.9499 44.4453 14.934 41.9309 19.5023 41.9309C24.0529 41.9309 28.037 44.4453 30.1264 48.1638H58.6699C60.7416 44.4453 64.7062 41.9309 69.2746 41.9309C73.843 41.9309 77.8092 44.4453 79.8987 48.1638H84.9999Z" fill="#334A5E"/>
<path d="M77.7579 54.1293C77.7579 58.8146 73.9598 62.6127 69.2745 62.6127C64.5893 62.6127 60.7947 58.8146 60.7947 54.1293C60.7947 49.4441 64.591 45.646 69.2745 45.646C73.9616 45.646 77.7579 49.4441 77.7579 54.1293Z" fill="#40596B"/>
<path d="M72.6849 54.1293C72.6849 56.0116 71.1585 57.5361 69.278 57.5361C67.3957 57.5361 65.8677 56.0116 65.8677 54.1293C65.8677 52.247 67.3941 50.7224 69.278 50.7224C71.1585 50.7208 72.6849 52.2471 72.6849 54.1293Z" fill="#ACB3BA"/>
<path d="M27.9787 54.1293C27.9787 58.8146 24.1787 62.6127 19.4953 62.6127C14.8101 62.6127 11.012 58.8146 11.012 54.1293C11.012 49.4441 14.8101 45.646 19.4953 45.646C24.1787 45.646 27.9787 49.4441 27.9787 54.1293Z" fill="#40596B"/>
<path d="M22.902 54.1293C22.902 56.0116 21.3775 57.5361 19.4952 57.5361C17.6129 57.5361 16.0867 56.0116 16.0867 54.1293C16.0867 52.247 17.6131 50.7224 19.4952 50.7224C21.3773 50.7224 22.902 52.2471 22.902 54.1293Z" fill="#ACB3BA"/>
</svg>
