<svg width="107" height="108" viewBox="0 0 107 108" fill="none" xmlns="http://www.w3.org/2000/svg">
<path d="M81.4626 62.1287C81.4626 81.662 65.6203 97.497 46.078 97.497C26.5357 97.497 13.4925 81.6622 13.4925 62.1287C13.4925 54.3186 13.2262 47.0997 17.5154 41.2479C22.5524 34.3757 30.012 29.3891 38.6369 27.5439C39.8366 27.2872 41.0587 29.8892 42.3 29.7575C43.5413 29.6258 44.8018 26.7605 46.078 26.7605C57.9564 26.7605 65.6688 32.6109 72.0864 41.586C75.1211 45.8303 80.0395 50.7732 80.9552 56.1269C81.2888 58.0777 81.4626 60.083 81.4626 62.1287V62.1287Z" fill="#89C8FD"/>
<path d="M59.2007 29.1553C69.225 35.3588 75.9025 46.4391 75.9025 59.0781C75.9025 78.5092 60.1225 94.2614 40.657 94.2614C36.1418 94.2614 31.8255 93.4125 27.8577 91.8682C33.2446 95.2019 39.5972 97.1286 46.4014 97.1286C65.8669 97.1286 81.6469 81.3765 81.6469 61.9454C81.6469 59.9101 81.4738 57.9153 81.1415 55.9749C80.4065 51.6838 76.1051 47.6579 73.9635 44.0474C69.9713 37.3172 66.5847 32.0295 59.2007 29.1553Z" fill="#80B4FB"/>
<path d="M80.8823 55.7529C78.0666 39.2855 63.7333 26.7485 46.4629 26.7485C43.9429 26.7485 41.4874 27.0215 39.1187 27.5285C39.8155 30.334 40.5266 33.6291 41.1667 37.5169C42.2136 43.8749 42.6523 49.2661 45.682 50.2417C48.6327 51.192 51.0309 46.9845 55.1231 47.7788C58.5566 48.4453 59.0378 51.8283 62.1014 54.3464C66.2568 57.7626 74.0743 58.691 80.8823 55.7529Z" fill="#BAEB6C"/>
<path d="M75.6606 57.2528C77.4155 56.98 79.1804 56.4872 80.8824 55.7528C78.7564 43.5913 70.4804 33.5412 59.155 29.1292C68.6661 35.0288 75.1312 45.3683 75.6606 57.2528V57.2528Z" fill="#95D6A4"/>
<path d="M26.0368 50.0814C24.9413 46.5461 21.9365 43.2559 18.2724 41.0603C14.0381 46.8397 11.5327 53.9653 11.5327 61.6787C11.5327 70.9746 15.171 79.4159 21.0926 85.6744C25.4744 82.7617 28.6148 78.0722 28.912 73.8667C29.1096 71.0697 27.8867 70.8048 26.821 65.2413C25.2252 56.911 27.3676 54.3759 26.0368 50.0814V50.0814Z" fill="#BAEB6C"/>
<path d="M34.6143 94.5443C38.3143 95.8785 42.3028 96.6091 46.4628 96.6091C56.7813 96.6091 66.0516 92.1324 72.4459 85.0184C70.1113 81.5564 66.5895 78.3405 64.5982 76.5236C61.838 74.0053 55.2583 68.0019 51.2005 69.9466C48.0278 71.4671 49.5778 76.3223 46.8157 82.6136C43.9412 89.1613 38.5272 92.4143 34.6143 94.5443V94.5443Z" fill="#BAEB6C"/>
<path d="M72.6205 85.4331C72.6207 85.4329 72.6207 85.4329 72.6205 85.4331C71.4391 83.6784 70.0276 82.0679 68.5601 80.5498C61.4193 90.0087 48.8698 95.6097 36.3588 93.9899C35.7442 94.3529 35.1142 94.7044 34.4893 95.0451C38.2186 96.3915 42.2387 97.1287 46.4316 97.1287C56.8318 97.1287 66.1756 92.6114 72.6205 85.4331V85.4331Z" fill="#95D6A4"/>
<path d="M45.536 107.158C43.0478 107.158 40.5417 106.953 38.0372 106.539C26.0651 104.559 15.5791 98.0292 8.51149 88.1523C1.44384 78.2753 -1.35954 66.233 0.618259 54.2445C0.761164 53.3761 1.58266 52.7889 2.44744 52.932C3.31466 53.0751 3.9018 53.8954 3.75808 54.7638C1.91992 65.9124 4.52649 77.1108 11.0993 86.2959C17.6721 95.4811 27.4222 101.553 38.5565 103.395C61.5413 107.197 83.3249 91.564 87.1212 68.5497C88.9594 57.4011 86.3528 46.2027 79.78 37.0176C73.208 27.8324 63.457 21.7606 52.3236 19.9189C51.4563 19.7758 50.8692 18.9556 51.0121 18.0872C51.1558 17.2187 51.9765 16.6315 52.8413 16.7747C64.8142 18.7545 75.3002 25.2843 82.367 35.1612C89.4346 45.0382 92.238 57.0805 90.261 69.069C88.2841 81.0574 81.7627 91.5574 71.899 98.6344C64.0981 104.231 54.9457 107.158 45.536 107.158V107.158Z" fill="#09A66D"/>
<path d="M35.8863 38.3888C18.9088 35.5102 8.37671 14.1494 8.37671 14.1494C8.37671 14.1494 25.3713 -2.54434 42.3487 0.333496C59.3261 3.21133 69.8582 24.5721 69.8582 24.5721C69.8582 24.5721 52.8637 41.2667 35.8863 38.3888Z" fill="#49CB5C"/>
<path d="M42.3308 0.333029C39.0865 -0.216613 35.843 -0.0510685 32.7163 0.574414C48.995 4.22456 59.0367 24.5719 59.0367 24.5719C59.0367 24.5719 47.9049 35.4987 34.6565 38.1474C35.0558 38.2371 35.4576 38.3195 35.8643 38.3888C52.8526 41.2667 69.8581 24.5719 69.8581 24.5719C69.8581 24.5719 59.3192 3.2109 42.3308 0.333029V0.333029Z" fill="#07B128"/>
<path d="M68.8985 22.9305L52.2957 20.11L36.7872 0C35.55 0.0731422 34.3243 0.232576 33.1149 0.461043L47.6605 19.3219L35.1412 17.195L24.4589 3.27661C23.4568 3.7319 22.4824 4.21513 21.5431 4.71644L30.5174 16.4093L9.81625 12.8919C8.88675 13.7096 8.37671 14.2142 8.37671 14.2142C8.37671 14.2142 8.71782 14.9103 9.37231 16.065L29.9608 19.5627L18.5424 28.454C19.2777 29.2166 20.0489 29.9702 20.8552 30.7017L34.2288 20.2883L47.4825 22.5401L29.4573 36.5843C30.5761 37.1102 31.7325 37.5655 32.9248 37.9321L51.7506 23.2658L68.364 26.0879C69.327 25.2423 69.8582 24.718 69.8582 24.718C69.8582 24.718 69.5294 24.0474 68.8985 22.9305V22.9305Z" fill="#09A66D"/>
<path d="M81.4844 17.6703C86.0362 6.93371 101.807 3.31909 101.807 3.31909C101.807 3.31909 110.199 17.1117 105.647 27.8483C101.096 38.5848 85.3242 42.1994 85.3242 42.1994C85.3242 42.1994 76.9327 28.4068 81.4844 17.6703Z" fill="#49CB5C"/>
<path d="M101.792 3.31909C101.792 3.31909 98.1958 4.14185 93.9379 6.16624C96.1225 10.7662 99.5854 20.102 96.2918 27.8483C93.9043 33.4645 88.4376 37.132 83.7666 39.3523C84.6098 41.1279 85.2633 42.1994 85.2633 42.1994C85.2633 42.1994 101.079 38.5848 105.643 27.8483C110.207 17.1117 101.792 3.31909 101.792 3.31909Z" fill="#07B128"/>
<path d="M106.937 18.993L94.8084 24.0645L102.772 5.08819C102.201 3.96624 101.807 3.31909 101.807 3.31909C101.807 3.31909 101.057 3.49145 99.8361 3.87194L91.6062 23.4832L86.5028 10.967C85.6382 11.7272 84.8226 12.5532 84.0828 13.4483L89.8657 27.6312L84.4335 40.5759C84.9637 41.6076 85.3234 42.1994 85.3234 42.1994C85.3234 42.1994 86.139 42.0125 87.4505 41.5978L93.0597 28.232L106.932 22.432C107.024 21.2833 107.019 20.1312 106.937 18.993V18.993Z" fill="#09A66D"/>
</svg>
