<svg width="121" height="120" viewBox="0 0 121 120" fill="none" xmlns="http://www.w3.org/2000/svg">
<g clip-path="url(#clip0)">
<path d="M60.4875 120C93.6937 120 120.613 93.1371 120.613 60C120.613 26.8629 93.6937 0 60.4875 0C27.2814 0 0.362549 26.8629 0.362549 60C0.362549 93.1371 27.2814 120 60.4875 120Z" fill="#EAB14D"/>
<path d="M60.4874 0C59.4141 0 58.3476 0.0292969 57.2881 0.0846094C89.0068 1.74445 114.214 27.934 114.214 60C114.214 92.066 89.0068 118.256 57.2881 119.915C58.3476 119.971 59.4141 120 60.4874 120C93.6935 120 120.612 93.1371 120.612 60C120.612 26.8629 93.6935 0 60.4874 0Z" fill="#E49542"/>
<path d="M60.4877 106.755C86.3634 106.755 107.34 85.822 107.34 60C107.34 34.1781 86.3634 13.2453 60.4877 13.2453C34.6119 13.2453 13.6355 34.1781 13.6355 60C13.6355 85.822 34.6119 106.755 60.4877 106.755Z" fill="#F4FBFF"/>
<path d="M60.4875 13.2453C59.1898 13.2453 57.9054 13.3004 56.6345 13.4035C80.7078 15.3591 99.634 35.4729 99.634 60C99.634 84.5272 80.7078 104.641 56.6345 106.597C57.9054 106.7 59.1898 106.755 60.4875 106.755C86.3633 106.755 107.34 85.8221 107.34 60.0003C107.34 34.1785 86.3633 13.2453 60.4875 13.2453Z" fill="#DAF1F4"/>
<path d="M60.4879 27.6354C59.4857 27.6354 58.6733 26.8247 58.6733 25.8246V23.1668C58.6733 22.1667 59.4857 21.356 60.4879 21.356C61.4901 21.356 62.3027 22.1667 62.3027 23.1668V25.8246C62.3027 26.8247 61.4901 27.6354 60.4879 27.6354Z" fill="#2B4D66"/>
<path d="M84.605 37.6861C84.1404 37.6861 83.6761 37.5092 83.3217 37.1557C82.6131 36.4484 82.6131 35.302 83.3219 34.5947L85.2053 32.7155C85.9139 32.0081 87.0628 32.0084 87.7717 32.7155C88.4803 33.4228 88.4803 34.5692 87.7714 35.2765L85.8881 37.1559C85.5336 37.5091 85.0693 37.6861 84.605 37.6861Z" fill="#2B4D66"/>
<path d="M97.2001 61.811H94.5367C93.5343 61.811 92.7222 61.0003 92.7222 60.0002C92.7222 59.0001 93.5346 58.1894 94.5367 58.1894H97.2001C98.2025 58.1894 99.0146 59.0001 99.0146 60.0002C99.0146 61.0003 98.2022 61.811 97.2001 61.811Z" fill="#2B4D66"/>
<path d="M86.3482 87.7578C85.8839 87.7578 85.4194 87.5808 85.0649 87.2274L83.1818 85.3482C82.4732 84.6408 82.4732 83.4945 83.1818 82.7869C83.8906 82.08 85.0393 82.08 85.7484 82.7869L87.6315 84.6661C88.3401 85.3735 88.3401 86.5198 87.6315 87.2274C87.2771 87.5808 86.8126 87.7578 86.3482 87.7578Z" fill="#2B4D66"/>
<path d="M60.2899 98.4476C59.2877 98.4476 58.4753 97.6369 58.4753 96.6368V93.979C58.4753 92.9787 59.2877 92.1682 60.2899 92.1682C61.2921 92.1682 62.1045 92.9789 62.1045 93.979V96.6368C62.1045 97.6369 61.2921 98.4476 60.2899 98.4476Z" fill="#2B4D66"/>
<path d="M34.2892 87.618C33.8249 87.618 33.3603 87.4411 33.0061 87.0874C32.2973 86.3803 32.2976 85.2337 33.0061 84.5264L34.8895 82.6472C35.5983 81.9403 36.747 81.94 37.4558 82.6474C38.1644 83.3545 38.1644 84.5011 37.4556 85.2084L35.5722 87.0876C35.2181 87.4413 34.7535 87.618 34.2892 87.618Z" fill="#2B4D66"/>
<path d="M26.2406 61.6139H23.5772C22.5751 61.6139 21.7627 60.8032 21.7627 59.8031C21.7627 58.803 22.5751 57.9923 23.5772 57.9923H26.2406C27.2428 57.9923 28.0551 58.803 28.0551 59.8031C28.0554 60.8032 27.2428 61.6139 26.2406 61.6139Z" fill="#2B4D66"/>
<path d="M36.3122 37.5466C35.8479 37.5466 35.3836 37.3699 35.0292 37.0162L33.1458 35.137C32.4372 34.4297 32.437 33.2834 33.1456 32.576C33.8544 31.8689 35.0031 31.8687 35.7119 32.5758L37.5953 34.4552C38.3039 35.1623 38.3041 36.3089 37.5955 37.0162C37.2409 37.3697 36.7766 37.5466 36.3122 37.5466Z" fill="#2B4D66"/>
<path d="M60.4878 61.811H45.076C44.0739 61.811 43.2615 61.0001 43.2615 60C43.2615 58.9999 44.0739 58.1892 45.076 58.1892H58.673V35.1509C58.673 34.1508 59.4854 33.3401 60.4875 33.3401C61.4897 33.3401 62.3021 34.1508 62.3021 35.1509V60C62.3023 61.0001 61.4899 61.811 60.4878 61.811Z" fill="#2B4D66"/>
<path d="M79.104 71.3651C78.8245 71.3651 78.5413 71.3004 78.2756 71.1642L59.6575 61.6102C58.7662 61.1529 58.4153 60.0612 58.8736 59.1717C59.3318 58.2823 60.4258 57.9319 61.3173 58.3894L79.9354 67.9432C80.8267 68.4007 81.1778 69.4924 80.7194 70.3817C80.3974 71.0063 79.7623 71.3651 79.104 71.3651Z" fill="#DA4A54"/>
<path d="M60.4874 64.8333C63.1623 64.8333 65.3307 62.6694 65.3307 60C65.3307 57.3307 63.1623 55.1667 60.4874 55.1667C57.8125 55.1667 55.644 57.3307 55.644 60C55.644 62.6694 57.8125 64.8333 60.4874 64.8333Z" fill="#365E7D"/>
</g>
<defs>
<clipPath id="clip0">
<rect width="120.25" height="120" fill="white" transform="translate(0.362549)"/>
</clipPath>
</defs>
</svg>
