<svg width="120" height="120" viewBox="0 0 120 120" fill="none" xmlns="http://www.w3.org/2000/svg">
<g clip-path="url(#clip0)">
<path d="M110.391 21.0938H103.359C101.418 21.0938 99.8438 19.5197 99.8438 17.5781C99.8438 15.6366 101.418 14.0625 103.359 14.0625H110.391C112.332 14.0625 113.906 15.6366 113.906 17.5781C113.906 19.5197 112.332 21.0938 110.391 21.0938Z" fill="#365E7D"/>
<path d="M106.875 35.1562H103.359C101.418 35.1562 99.8438 33.5822 99.8438 31.6406C99.8438 29.6991 101.418 28.125 103.359 28.125H106.875C108.817 28.125 110.391 29.6991 110.391 31.6406C110.391 33.5822 108.817 35.1562 106.875 35.1562Z" fill="#365E7D"/>
<path d="M110.391 49.2188H103.359C101.418 49.2188 99.8438 47.6447 99.8438 45.7031C99.8438 43.7616 101.418 42.1875 103.359 42.1875H110.391C112.332 42.1875 113.906 43.7616 113.906 45.7031C113.906 47.6447 112.332 49.2188 110.391 49.2188Z" fill="#365E7D"/>
<path d="M106.875 63.2812H103.359C101.418 63.2812 99.8438 61.7072 99.8438 59.7656C99.8438 57.8241 101.418 56.25 103.359 56.25H106.875C108.817 56.25 110.391 57.8241 110.391 59.7656C110.391 61.7072 108.817 63.2812 106.875 63.2812Z" fill="#365E7D"/>
<path d="M110.391 77.3438H103.359C101.418 77.3438 99.8438 75.7697 99.8438 73.8281C99.8438 71.8866 101.418 70.3125 103.359 70.3125H110.391C112.332 70.3125 113.906 71.8866 113.906 73.8281C113.906 75.7697 112.332 77.3438 110.391 77.3438Z" fill="#365E7D"/>
<path d="M50.625 95.3906C50.625 108.982 61.643 120 75.2344 120C88.8258 120 99.8438 108.982 99.8438 95.3906C99.8438 87.552 96.1786 80.5697 90.4688 76.0629V15.2344C90.4688 6.82078 83.6482 0 75.2344 0C66.8208 0 60 6.82055 60 15.2344V76.0631C54.2902 80.5697 50.625 87.552 50.625 95.3906Z" fill="#E2DFF4"/>
<path d="M99.8438 95.3906C99.8438 87.552 96.1786 80.5697 90.4688 76.0629V15.2344C90.4688 6.82078 83.6482 0 75.2344 0V120C88.8258 120 99.8438 108.982 99.8438 95.3906Z" fill="#BEBCDD"/>
<path d="M75.2344 112.969C65.5418 112.969 57.6562 105.083 57.6562 95.3906C57.6562 89.9759 60.0982 84.9429 64.3561 81.5822L67.0312 79.4709V15.2344C67.0312 10.7112 70.7112 7.03125 75.2344 7.03125C79.7576 7.03125 83.4375 10.7112 83.4375 15.2344V79.4709L86.1127 81.5822C90.3705 84.9429 92.8125 89.9759 92.8125 95.3906C92.8125 105.083 84.927 112.969 75.2344 112.969Z" fill="#F9F9F9"/>
<path d="M75.2344 112.969C84.927 112.969 92.8125 105.083 92.8125 95.3906C92.8125 89.9759 90.3705 84.9429 86.1127 81.5822L83.4375 79.4709V15.2344C83.4375 10.7112 79.7576 7.03125 75.2344 7.03125V112.969Z" fill="#E2DFF4"/>
<path d="M78.75 85.4484V45.7031C78.75 43.7616 77.1759 42.1875 75.2344 42.1875C73.2928 42.1875 71.7188 43.7616 71.7188 45.7031V85.4484C67.6268 86.8997 64.6875 90.8074 64.6875 95.3906C64.6875 101.206 69.4188 105.938 75.2344 105.938C81.0499 105.938 85.7812 101.206 85.7812 95.3906C85.7812 90.8074 82.842 86.8997 78.75 85.4484Z" fill="#FF7D47"/>
<path d="M78.75 85.4484V45.7031C78.75 43.7616 77.1759 42.1875 75.2344 42.1875V105.938C81.0499 105.938 85.7812 101.206 85.7812 95.3906C85.7812 90.8074 82.842 86.8997 78.75 85.4484Z" fill="#FF405C"/>
<path d="M22.4999 59.7656V26.0655L25.8732 29.4389C27.2462 30.8119 29.4721 30.8119 30.845 29.4389C32.218 28.0659 32.218 25.8401 30.845 24.4671L21.47 15.0921C20.0971 13.7191 17.8712 13.7191 16.4982 15.0921L7.12323 24.4671C5.75026 25.8401 5.75026 28.0659 7.12323 29.4389C8.4962 30.8119 10.7221 30.8119 12.095 29.4389L15.4686 26.0655V59.7656C15.4686 61.7072 17.0427 63.2812 18.9842 63.2812C20.9258 63.2812 22.4999 61.7072 22.4999 59.7656Z" fill="#E49542"/>
<path d="M44.9078 76.0296C43.5348 74.6566 41.3089 74.6566 39.936 76.0296L36.5624 79.4032V45.7031C36.5624 43.7616 34.9883 42.1875 33.0468 42.1875C31.1052 42.1875 29.5311 43.7616 29.5311 45.7031V79.4032L26.1578 76.0298C24.7848 74.6569 22.5589 74.6569 21.186 76.0298C19.813 77.4028 19.813 79.6287 21.186 81.0016L30.561 90.3766C31.9339 91.7496 34.1598 91.7496 35.5328 90.3766L44.9078 81.0016C46.2805 79.6287 46.2805 77.4026 44.9078 76.0296Z" fill="#365E7D"/>
<path d="M30.8452 24.4673L21.4702 15.0923C20.7839 14.4056 19.8841 14.0625 18.9844 14.0625V63.2812C20.9259 63.2812 22.5 61.7072 22.5 59.7656V26.0655L25.8734 29.4389C27.2463 30.8119 29.4722 30.8119 30.8452 29.4389C32.2181 28.0662 32.2181 25.8401 30.8452 24.4673Z" fill="#EAB14D"/>
<path d="M44.9076 81.0014L35.5327 90.3764C34.8464 91.0631 33.9466 91.4062 33.0469 91.4062V42.1875C34.9884 42.1875 36.5625 43.7616 36.5625 45.7031V79.4032L39.9359 76.0298C41.3088 74.6569 43.5347 74.6569 44.9076 76.0298C46.2806 77.4026 46.2806 79.6287 44.9076 81.0014Z" fill="#2A4E69"/>
</g>
<defs>
<clipPath id="clip0">
<rect width="120" height="120" fill="white"/>
</clipPath>
</defs>
</svg>
