<svg width="115" height="115" viewBox="0 0 115 115" fill="none" xmlns="http://www.w3.org/2000/svg">
<path d="M57.5 95C78.2106 95 95 78.2106 95 57.5C95 36.7893 78.2106 20 57.5 20C36.7893 20 20 36.7893 20 57.5C20 78.2106 36.7893 95 57.5 95Z" fill="#FFD347"/>
<path d="M57.4998 15C58.8805 15 59.9999 13.8806 59.9999 12.4999V2.50008C59.9999 1.11937 58.8805 0 57.4998 0C56.1191 0 54.9998 1.11937 54.9998 2.50008V12.5002C55 13.8806 56.1191 15 57.4998 15Z" fill="#FFD54F"/>
<path d="M57.4998 100C56.1191 100 54.9998 101.119 54.9998 102.5V112.5C54.9998 113.881 56.1191 115 57.4998 115C58.8805 115 59.9999 113.881 59.9999 112.5V102.5C59.9999 101.119 58.8805 100 57.4998 100Z" fill="#FFD54F"/>
<path d="M112.5 55H102.5C101.119 55 99.9998 56.1194 99.9998 57.5001C99.9998 58.8808 101.119 60.0002 102.5 60.0002H112.5C113.881 60.0002 115 58.8808 115 57.5001C115 56.1191 113.881 55 112.5 55Z" fill="#FFD54F"/>
<path d="M15 57.4998C15 56.1191 13.8806 54.9998 12.4999 54.9998H2.50008C1.11937 55 0 56.1191 0 57.4998C0 58.8805 1.11937 59.9999 2.50008 59.9999H12.5002C13.8806 59.9999 15 58.8805 15 57.4998Z" fill="#FFD54F"/>
<path d="M32.8349 19.7801C33.2823 20.5552 34.1099 21.0319 35.005 21.0301C35.444 21.0317 35.8757 20.9162 36.2549 20.6951C37.4507 20.0047 37.8601 18.4758 37.1699 17.2801L32.17 8.62014C31.4718 7.42905 29.9401 7.02944 28.749 7.72764C27.569 8.41928 27.164 9.931 27.8401 11.12L32.8349 19.7801Z" fill="#FFD54F"/>
<path d="M82.165 95.22C81.4666 94.0289 79.9349 93.6295 78.7439 94.328C77.5642 95.0198 77.1592 96.5311 77.835 97.7201L82.8349 106.38C83.2823 107.155 84.1099 107.632 85.0049 107.63C85.4439 107.632 85.8757 107.516 86.2549 107.295C87.4507 106.605 87.8601 105.076 87.1699 103.88L82.165 95.22Z" fill="#FFD54F"/>
<path d="M96.47 37.5001C96.9089 37.5017 97.3407 37.3861 97.7199 37.1651L106.38 32.1652C107.603 31.5251 108.076 30.0146 107.436 28.7911C106.796 27.5677 105.285 27.0947 104.062 27.7348C104 27.7674 103.939 27.8026 103.88 27.8403L95.2198 32.8402C94.024 33.5307 93.6146 35.0597 94.3048 36.2553C94.7513 37.0287 95.5765 37.5052 96.4697 37.5052V37.5001H96.47Z" fill="#FFD54F"/>
<path d="M17.2801 77.8349L8.6202 82.8348C7.42442 83.5253 7.01497 85.0541 7.7052 86.2499C8.15168 87.0233 8.97692 87.4998 9.87012 87.4998C10.3091 87.5014 10.7408 87.3859 11.12 87.1649L19.78 82.165C21.0034 81.5249 21.4764 80.0143 20.8363 78.7909C20.1962 77.5675 18.6857 77.0945 17.4622 77.7346C17.3999 77.7672 17.3392 77.8023 17.2799 77.84L17.2801 77.8349Z" fill="#FFD54F"/>
<path d="M8.62018 32.1649L17.2801 37.1648C17.6581 37.3849 18.0878 37.5007 18.5251 37.4997C19.9058 37.4997 21.0249 36.3804 21.0249 34.9997C21.0249 34.1067 20.5485 33.2815 19.775 32.8347L11.1151 27.8348C9.94979 27.0942 8.40479 27.4383 7.66416 28.6033C6.92354 29.7684 7.2676 31.3136 8.43268 32.0543C8.49197 32.092 8.55268 32.1272 8.61502 32.1597L8.62018 32.1649Z" fill="#FFD54F"/>
<path d="M106.38 82.835L97.7201 77.8351C96.5548 77.0944 95.0098 77.4385 94.2691 78.6036C93.5285 79.7686 93.8726 81.3139 95.0377 82.0545C95.097 82.0922 95.1579 82.1274 95.22 82.16L103.88 87.1599C104.259 87.3809 104.691 87.4964 105.13 87.4948C106.511 87.4948 107.63 86.3754 107.63 84.9947C107.63 84.1015 107.153 83.2763 106.38 82.8298V82.835H106.38Z" fill="#FFD54F"/>
<path d="M78.7498 20.6951C79.1293 20.9161 79.5608 21.0317 79.9998 21.0301C80.8946 21.0319 81.7222 20.555 82.1698 19.7801L87.1697 11.1202C87.852 9.91998 87.432 8.39373 86.2318 7.71147C85.0428 7.03576 83.5316 7.44053 82.8397 8.62037L77.8398 17.2803C77.1486 18.4744 77.5559 20.003 78.7498 20.6951Z" fill="#FFD54F"/>
<path d="M36.2501 94.3051C35.0543 93.6148 33.5255 94.0243 32.835 95.2201L27.8351 103.88C27.1448 105.076 27.5543 106.605 28.7501 107.295C29.1295 107.516 29.561 107.632 30 107.63C30.8948 107.632 31.7227 107.155 32.1701 106.38L37.17 97.7201C37.8591 96.5236 37.448 94.9951 36.2515 94.306C36.251 94.3055 36.2506 94.3053 36.2501 94.3051Z" fill="#FFD54F"/>
<path d="M58.8709 20C57.5631 20 56.2718 20.0741 55 20.2144C73.1332 22.2194 87.258 38.1467 87.258 57.4999C87.258 76.853 73.1329 92.7806 55 94.7856C56.2718 94.9265 57.5629 95 58.8709 95C78.8245 95 95 78.2107 95 57.4999C95 36.7891 78.8247 20 58.8709 20Z" fill="#FFBE31"/>
</svg>
