<svg width="101" height="101" viewBox="0 0 101 101" fill="none" xmlns="http://www.w3.org/2000/svg">
<g clip-path="url(#clip0)">
<path d="M76.1646 58.1054C76.1646 39.7482 61.3226 24.8669 43.0139 24.8669C24.7052 24.8669 9.86328 39.7482 9.86328 58.1054C9.86328 76.4627 24.7052 91.3439 43.0139 91.3439C61.3226 91.3439 76.1646 76.4627 76.1646 58.1054Z" fill="#89C8FD"/>
<path d="M43.0139 24.8669C41.3125 24.8669 39.6404 24.9956 38.0083 25.2438C53.9414 27.6633 66.1526 41.4542 66.1526 58.1054C66.1526 74.7566 53.9414 88.5475 38.0083 90.9671C39.6404 91.2152 41.3125 91.3439 43.0139 91.3439C61.3226 91.3439 76.1646 76.4627 76.1646 58.1054C76.1646 39.7482 61.3226 24.8669 43.0139 24.8669Z" fill="#60B6FF"/>
<path d="M38.7048 37.7849C33.5983 40.985 29.7678 46.1047 32.6405 51.8655C35.5131 57.6255 41.8965 55.3854 47.8014 54.5856C53.7063 53.7857 49.2377 72.0266 52.7484 76.5067C56.2592 80.9868 66.1533 72.0266 65.1962 66.2659C63.7784 57.7372 63.2814 54.7451 74.7713 48.6653L74.8021 48.6537C70.9292 35.5394 59.2058 25.8087 45.0898 24.9341L45.0882 24.9842C45.0882 24.9842 43.8114 34.5847 38.7048 37.7849Z" fill="#BAEB6C"/>
<path d="M63.7839 32.2014C63.7863 32.203 63.7886 32.2053 63.7909 32.2069C63.7886 32.2053 63.7863 32.2038 63.7839 32.2014Z" fill="#BAEB6C"/>
<path d="M67.8379 36.0789C67.8379 36.0798 67.8388 36.0807 67.8397 36.0807C67.8388 36.0798 67.8388 36.0798 67.8379 36.0789Z" fill="#BAEB6C"/>
<path d="M20.9911 73.1463C19.4576 70.8076 23.7042 65.3065 24.6613 61.1462C25.6191 56.9859 19.8737 57.3057 18.1184 55.8655C16.363 54.4253 13.9689 48.1853 12.2135 46.7451L11.933 46.5239C10.5953 50.1302 9.86328 54.0323 9.86328 58.1056C9.86328 69.0923 15.1802 78.8323 23.3744 84.8836L23.3845 84.187C23.3845 84.187 24.6613 78.7468 20.9911 73.1463Z" fill="#BAEB6C"/>
<path d="M65.1962 66.2659C65.1893 66.2243 65.1824 66.1835 65.1754 66.1418C64.5412 68.704 63.6104 71.149 62.4214 73.4376C64.307 71.2122 65.5669 68.499 65.1962 66.2659Z" fill="#BAEB6C"/>
<path d="M45.09 24.9341L45.0884 24.9842C45.0884 24.9842 44.9821 25.7856 44.7078 27.0007C56.3326 31.4007 64.8435 42.1625 66.0148 55.0525C67.4796 53.0491 70.1589 51.1057 74.7715 48.6653L74.8023 48.6537C70.9294 35.5394 59.206 25.8087 45.09 24.9341Z" fill="#96D629"/>
<path d="M42.9693 101C40.6214 101 38.2565 100.807 35.8932 100.417C24.5959 98.551 14.701 92.398 8.03173 83.0911C1.36246 73.7841 -1.28291 62.4367 0.583411 51.1402C0.71826 50.3219 1.49345 49.7686 2.30948 49.9034C3.12783 50.0383 3.68187 50.8112 3.54625 51.6295C1.8117 62.1347 4.27135 72.6869 10.4737 81.3419C16.676 89.9969 25.8766 95.7184 36.3833 97.4537C58.0725 101.037 78.6282 86.3059 82.2105 64.6198C83.9451 54.1146 81.4854 43.5624 75.2831 34.9074C69.0816 26.2524 59.8802 20.5309 49.3743 18.7956C48.5559 18.6607 48.0019 17.8878 48.1368 17.0695C48.2724 16.2512 49.0468 15.6979 49.8628 15.8327C61.1609 17.6983 71.0558 23.8513 77.7243 33.1582C84.3936 42.4651 87.0389 53.8125 85.1734 65.1091C83.3078 76.4056 77.1541 86.2997 67.8464 92.9682C60.4851 98.242 51.8486 101 42.9693 101Z" fill="#09A66D"/>
<path d="M33.8519 36.2747C17.8209 33.5546 7.87598 13.3703 7.87598 13.3703C7.87598 13.3703 23.9231 -2.40397 39.954 0.315372C55.9849 3.03471 65.9299 23.219 65.9299 23.219C65.9299 23.219 49.8828 38.9941 33.8519 36.2747Z" fill="#49CB5C"/>
<path d="M39.954 0.315171C36.8926 -0.204192 33.8319 -0.047767 30.8813 0.543259C46.2426 3.99233 55.7183 23.2188 55.7183 23.2188C55.7183 23.2188 45.2139 33.5436 32.7122 36.0465C33.089 36.1312 33.4681 36.209 33.8519 36.2745C49.8828 38.9939 65.9299 23.2188 65.9299 23.2188C65.9299 23.2188 55.9849 3.03451 39.954 0.315171Z" fill="#07B128"/>
<path d="M65.0237 21.5429L49.3464 18.8983L34.7026 0.0424805C33.5344 0.111061 32.377 0.260551 31.235 0.47477L44.9696 18.1593L33.1483 16.1651L23.0616 3.11474C22.1153 3.54163 21.1953 3.99473 20.3083 4.46478L28.7823 15.4284L9.23526 12.1304C8.35758 12.8971 7.87598 13.3702 7.87598 13.3702C7.87598 13.3702 8.19807 14.0229 8.81607 15.1056L28.2568 18.3851L17.475 26.7219C18.1692 27.437 18.8974 28.1436 19.6587 28.8294L32.2868 19.0655L44.8016 21.1769L27.7813 34.3451C28.8378 34.8383 29.9297 35.2652 31.0555 35.6089L48.8317 21.8573L64.5189 24.5034C65.4282 23.7105 65.9299 23.2189 65.9299 23.2189C65.9299 23.2189 65.6193 22.5901 65.0237 21.5429Z" fill="#09A66D"/>
<path d="M76.8333 16.6819C81.1339 6.50578 96.0344 3.07983 96.0344 3.07983C96.0344 3.07983 103.963 16.1525 99.6622 26.3287C95.3624 36.5048 80.4612 39.9308 80.4612 39.9308C80.4612 39.9308 72.5328 26.858 76.8333 16.6819Z" fill="#49CB5C"/>
<path d="M96.0343 3.07983C96.0343 3.07983 92.6461 3.85965 88.6346 5.77837C90.6927 10.1382 93.9553 18.9867 90.8522 26.3287C88.603 31.6518 83.4525 35.1278 79.0518 37.2322C79.8462 38.9151 80.4619 39.9308 80.4619 39.9308C80.4619 39.9308 95.3624 36.5048 99.6629 26.3287C103.963 16.1525 96.0343 3.07983 96.0343 3.07983Z" fill="#07B128"/>
<path d="M100.881 17.9356L89.4223 22.7424L96.9453 4.75659C96.4067 3.69321 96.0345 3.07983 96.0345 3.07983C96.0345 3.07983 95.3256 3.24319 94.1721 3.60382L86.397 22.1915L81.5756 10.3286C80.7588 11.0491 79.9882 11.832 79.2893 12.6804L84.7526 26.1229L79.6207 38.3919C80.1215 39.3698 80.4613 39.9308 80.4613 39.9308C80.4613 39.9308 81.2319 39.7535 82.471 39.3605L87.7702 26.6924L100.876 21.1951C100.963 20.1063 100.958 19.0144 100.881 17.9356Z" fill="#09A66D"/>
</g>
<defs>
<clipPath id="clip0">
<rect width="101" height="101" fill="white"/>
</clipPath>
</defs>
</svg>
