<svg width="95" height="99" viewBox="0 0 95 99" fill="none" xmlns="http://www.w3.org/2000/svg">
<path d="M80.3664 82.8681V31.8389H10.6333V82.8681L45.5088 87.1209L80.3664 82.8681Z" fill="#F9EED7"/>
<path d="M74.5657 42.273V87.1208L80.3664 82.868V31.5827L78.794 30.2866H62.9055L72.7324 38.3861C73.8932 39.3428 74.5657 40.7684 74.5657 42.273Z" fill="#F2E4C8"/>
<path d="M80.3761 33.7107V31.5827L45.2311 2.61597L10.6428 31.5827V33.7107H42.0067L45.1998 32.7439L48.3485 33.7107H80.3761Z" fill="#D88A55"/>
<path d="M45.2302 2.61597L45.0303 2.78342V15.5467L67.0686 33.7107H80.3752V31.5827L45.2302 2.61597Z" fill="#C47943"/>
<path d="M61.5093 18.4022C60.9167 17.8098 59.9555 17.8098 59.3627 18.4022L46.6947 31.0702V6.51758C46.6947 5.67917 46.0151 4.99951 45.1769 4.99951C44.3385 4.99951 43.659 5.67898 43.659 6.51758V31.0702L31.0352 18.4465C30.4423 17.854 29.4813 17.854 28.8885 18.4465C28.2956 19.0395 28.2956 20.0005 28.8885 20.5934L42.0058 33.7107H48.3476L61.5093 20.5491C62.1022 19.9562 62.1022 18.9952 61.5093 18.4022Z" fill="#AE6834"/>
<path d="M10.6333 82.8682H80.3664V96.4617H10.6333V82.8682Z" fill="#D88A55"/>
<path d="M74.5657 82.8682H80.3665V96.4617H74.5657V82.8682Z" fill="#B5703E"/>
<path d="M56.7726 96.4618H34.2273V69.7718C34.2273 68.1768 35.5203 66.8838 37.1151 66.8838H40.1922L41.6424 68.8174L43.0926 66.8838H47.9071L49.3573 68.8174L50.8075 66.8838H53.8846C55.4796 66.8838 56.7726 68.1768 56.7726 69.7718V96.4618Z" fill="#804E2B"/>
<path d="M43.0925 95.9997V66.884H40.1921V95.9997C40.1921 96.1608 40.2163 96.316 40.2602 96.4618H43.0245C43.0686 96.316 43.0925 96.1608 43.0925 95.9997Z" fill="#603B20"/>
<path d="M50.8074 95.9997V66.884H47.907V95.9997C47.907 96.1608 47.9312 96.316 47.975 96.4618H50.7393C50.7834 96.316 50.8074 96.1608 50.8074 95.9997Z" fill="#603B20"/>
<path d="M63.6608 58.5224H56.8687L55.4809 56.5888L53.9683 58.5224H47.6582L46.208 56.5888L44.7578 58.5224H38.4475L37.0134 56.5888L35.5471 58.5224H28.755C28.2617 58.5224 27.8621 58.1225 27.8621 57.6295V51.1695L28.4421 49.7193L27.8621 48.2691V41.8092C27.8621 41.3159 28.2619 40.9163 28.755 40.9163H35.5471L37.0285 42.4631L38.4475 40.9163H44.7578L46.208 42.2698L47.6582 40.9163H53.9683L55.4668 42.8499L56.8687 40.9163H63.6608C64.1541 40.9163 64.5538 41.3161 64.5538 41.8092V48.2691L62.6202 49.6677L64.5538 51.1695V57.6295C64.5538 58.1225 64.1541 58.5224 63.6608 58.5224Z" fill="#FEFAF4"/>
<path d="M63.6606 40.916H57.8599C58.3531 40.916 58.7528 41.3159 58.7528 41.809V57.6292C58.7528 58.1223 58.3529 58.5222 57.8599 58.5222H63.6606C64.1539 58.5222 64.5536 58.1223 64.5536 57.6292V51.1693L62.62 49.773L64.5536 48.2689V41.809C64.5536 41.3159 64.1537 40.916 63.6606 40.916Z" fill="#EDEDED"/>
<path d="M85.9935 42.2412L45.1769 8.60012L5.03682 42.216C4.41729 42.735 3.49439 42.6532 2.97541 42.0337L0.660513 39.2696C0.14173 38.6501 0.223327 37.7272 0.842851 37.2082L43.0634 1.84995C44.2694 0.840029 46.0238 0.833261 47.2375 1.83351L90.148 37.2005C90.7716 37.7144 90.8605 38.6368 90.3466 39.2603L88.0535 42.0426C87.5394 42.6664 86.6173 42.7553 85.9935 42.2412Z" fill="#804E2B"/>
<path d="M64.5538 48.2689H56.8687V40.916H53.9683V48.2689H47.6582V40.916H44.7578V48.2689H38.4475V40.916H35.5471V48.2689H27.8621V51.1693H35.5471V58.5224H38.4475V51.1693H44.7578V58.5224H47.6582V51.1693H53.9683V58.5224H56.8687V51.1693H64.5538V48.2689Z" fill="#F2E4C8"/>
<path d="M58.7529 48.269H64.5537V51.1694H58.7529V48.269Z" fill="#E4D7BC"/>
</svg>
