<svg width="115" height="115" viewBox="0 0 115 115" fill="none" xmlns="http://www.w3.org/2000/svg">
<g clip-path="url(#clip0)">
<path d="M57.4993 90.0281C75.4645 90.0281 90.0281 75.4645 90.0281 57.4993C90.0281 39.5341 75.4645 24.9705 57.4993 24.9705C39.5341 24.9705 24.9705 39.5341 24.9705 57.4993C24.9705 75.4645 39.5341 90.0281 57.4993 90.0281Z" fill="#FFD347"/>
<path d="M57.5 12.7688C56.5403 12.7688 55.7622 11.991 55.7622 11.031V1.7378C55.7622 0.777822 56.5403 0 57.5 0C58.4598 0 59.2378 0.777822 59.2378 1.7378V11.0312C59.2378 11.991 58.4598 12.7688 57.5 12.7688Z" fill="#FFD347"/>
<path d="M34.2671 18.9947C33.6665 18.9947 33.0825 18.6832 32.7607 18.1257L28.1142 10.0775C27.6344 9.24647 27.919 8.18362 28.7503 7.70363C29.5816 7.22431 30.6442 7.50822 31.1242 8.33973L35.7707 16.3879C36.2504 17.219 35.9659 18.2818 35.1346 18.7618C34.8608 18.9197 34.562 18.9947 34.2671 18.9947Z" fill="#FFD347"/>
<path d="M17.2552 36.0035C16.9606 36.0035 16.6616 35.9284 16.388 35.7703L8.33983 31.1238C7.50877 30.6441 7.22397 29.5812 7.70373 28.7499C8.1835 27.9187 9.24635 27.6343 10.0776 28.1138L18.1258 32.7603C18.9569 33.2401 19.2417 34.3029 18.7619 35.1342C18.4398 35.6919 17.8559 36.0035 17.2552 36.0035Z" fill="#FFD347"/>
<path d="M11.031 59.2378H1.7378C0.778047 59.2378 0 58.46 0 57.5C0 56.54 0.778047 55.7622 1.7378 55.7622H11.0312C11.991 55.7622 12.769 56.54 12.769 57.5C12.769 58.46 11.9908 59.2378 11.031 59.2378Z" fill="#FFD347"/>
<path d="M9.21024 87.1189C8.60963 87.1189 8.02565 86.8074 7.70378 86.2499C7.22402 85.4188 7.5086 84.356 8.33988 83.876L16.3881 79.2295C17.2191 78.7502 18.282 79.0341 18.762 79.8656C19.2417 80.6967 18.9572 81.7595 18.1259 82.2395L10.0777 86.886C9.80388 87.0439 9.50493 87.1189 9.21024 87.1189Z" fill="#FFD347"/>
<path d="M29.6174 107.53C29.3228 107.53 29.0238 107.455 28.7502 107.297C27.9192 106.817 27.6344 105.754 28.1141 104.923L32.7606 96.8744C33.2404 96.0432 34.3032 95.7588 35.1345 96.2384C35.9656 96.7181 36.2504 97.781 35.7706 98.6122L31.1241 106.66C30.802 107.218 30.2181 107.53 29.6174 107.53Z" fill="#FFD347"/>
<path d="M57.5 115C56.5403 115 55.7622 114.222 55.7622 113.262V103.969C55.7622 103.009 56.5403 102.231 57.5 102.231C58.4598 102.231 59.2378 103.009 59.2378 103.969V113.262C59.2378 114.222 58.4598 115 57.5 115Z" fill="#FFD347"/>
<path d="M85.3826 107.53C84.782 107.53 84.198 107.218 83.8762 106.661L79.2297 98.6124C78.7499 97.7814 79.0345 96.7185 79.8658 96.2385C80.6968 95.7592 81.7597 96.0431 82.2397 96.8746L86.8861 104.923C87.3659 105.754 87.0813 106.817 86.2501 107.297C85.9763 107.455 85.6775 107.53 85.3826 107.53Z" fill="#FFD347"/>
<path d="M105.79 87.1189C105.495 87.1189 105.196 87.0439 104.923 86.8858L96.8745 82.2393C96.0434 81.7595 95.7586 80.6967 96.2384 79.8654C96.7182 79.0341 97.781 78.7498 98.6123 79.2293L106.66 83.8758C107.492 84.3556 107.776 85.4184 107.297 86.2497C106.974 86.8072 106.391 87.1189 105.79 87.1189Z" fill="#FFD347"/>
<path d="M113.262 59.2378H103.969C103.009 59.2378 102.231 58.46 102.231 57.5C102.231 56.54 103.009 55.7622 103.969 55.7622H113.262C114.222 55.7622 115 56.54 115 57.5C115 58.46 114.222 59.2378 113.262 59.2378Z" fill="#FFD347"/>
<path d="M97.7447 36.0034C97.1441 36.0034 96.5601 35.6919 96.2382 35.1344C95.7584 34.3034 96.043 33.2405 96.8743 32.7605L104.923 28.114C105.754 27.6347 106.816 27.9186 107.296 28.7501C107.776 29.5812 107.492 30.644 106.66 31.124L98.6121 35.7705C98.3383 35.9284 98.0394 36.0034 97.7447 36.0034Z" fill="#FFD347"/>
<path d="M80.7329 18.9948C80.4382 18.9948 80.1393 18.9198 79.8657 18.7616C79.0347 18.2819 78.7498 17.219 79.2296 16.3877L83.8761 8.33953C84.3559 7.50825 85.4187 7.2239 86.25 7.70344C87.0811 8.1832 87.3659 9.24606 86.8861 10.0773L82.2396 18.1255C81.9175 18.6832 81.3333 18.9948 80.7329 18.9948Z" fill="#FFD347"/>
<path d="M57.5002 24.9722C56.3228 24.9722 55.1602 25.0364 54.0151 25.1581C70.3409 26.8973 83.0578 40.7128 83.0578 57.4999C83.0578 74.2869 70.3407 88.1027 54.0151 89.8418C55.1602 89.964 56.3226 90.0278 57.5002 90.0278C75.4649 90.0278 90.0281 75.4646 90.0281 57.4999C90.0281 39.5352 75.4651 24.9722 57.5002 24.9722Z" fill="#FFBE31"/>
</g>
<defs>
<clipPath id="clip0">
<rect width="115" height="115" fill="white"/>
</clipPath>
</defs>
</svg>
