<svg width="20" height="20" viewBox="0 0 20 20" fill="none" xmlns="http://www.w3.org/2000/svg">
<g clip-path="url(#clip0)">
<path d="M13.9018 0.522949H5.29885C2.37733 0.522949 0.000488281 2.89991 0.000488281 5.82142V14.4244C0.000488281 17.346 2.37733 19.7228 5.29885 19.7228H13.9018C16.8235 19.7228 19.2004 17.3459 19.2004 14.4244V5.82142C19.2005 2.89991 16.8235 0.522949 13.9018 0.522949ZM17.497 14.4244C17.497 16.4067 15.8842 18.0193 13.9019 18.0193H5.29885C3.31665 18.0194 1.704 16.4067 1.704 14.4244V5.82142C1.704 3.83922 3.31665 2.22646 5.29885 2.22646H13.9018C15.8841 2.22646 17.4969 3.83922 17.4969 5.82142V14.4244H17.497Z" fill="white"/>
<path d="M9.60065 5.17578C6.87265 5.17578 4.65332 7.39511 4.65332 10.1231C4.65332 12.851 6.87265 15.0702 9.60065 15.0702C12.3286 15.0702 14.548 12.851 14.548 10.1231C14.548 7.39511 12.3286 5.17578 9.60065 5.17578ZM9.60065 13.3666C7.81208 13.3666 6.35683 11.9116 6.35683 10.123C6.35683 8.33431 7.81196 6.87917 9.60065 6.87917C11.3893 6.87917 12.8445 8.33431 12.8445 10.123C12.8445 11.9116 11.3892 13.3666 9.60065 13.3666Z" fill="white"/>
<path d="M14.7556 3.73145C14.4274 3.73145 14.105 3.86432 13.8732 4.09713C13.6402 4.32881 13.5063 4.65134 13.5063 4.98068C13.5063 5.30901 13.6404 5.63142 13.8732 5.86424C14.1048 6.09591 14.4274 6.22992 14.7556 6.22992C15.0849 6.22992 15.4063 6.09591 15.6391 5.86424C15.8719 5.63142 16.0048 5.30889 16.0048 4.98068C16.0048 4.65134 15.8719 4.32881 15.6391 4.09713C15.4075 3.86432 15.0849 3.73145 14.7556 3.73145Z" fill="white"/>
</g>
<defs>
<clipPath id="clip0">
<rect width="19.2" height="19.2" fill="white" transform="translate(0.000488281 0.522949)"/>
</clipPath>
</defs>
</svg>
