<svg width="279" height="100" viewBox="0 0 279 100" fill="none" xmlns="http://www.w3.org/2000/svg">
<path d="M137.779 61.2076L141.311 67.8467H138.209L134 61.3526V61.0337L138.209 54.5396H141.342L137.779 61.2076ZM143.708 61.2076L147.24 67.8467H144.138L139.929 61.3526V61.0337L144.138 54.5396H147.271L143.708 61.2076Z" fill="#6674C9"/>
<path d="M164.629 49.4951V69.8182H159.376V54.2787H153.723V69.8182H148.47V49.4951H164.629Z" fill="#6674C9"/>
<path d="M181.155 66.8326H173.813L172.615 69.8187H166.993L175.595 49.2637H179.343L188.313 69.8187H182.384L181.155 66.8326ZM175.902 61.73L175.718 62.1939H179.281L179.158 61.846L177.5 57.4393L175.902 61.73Z" fill="#6674C9"/>
<path d="M197.959 49.4951C208.066 49.4951 208.035 63.788 197.959 63.788H194.979V69.8182H189.726V49.4951H197.959ZM197.959 59.0913C201.215 59.0913 201.215 54.3077 197.959 54.3077H194.979V59.0913H197.959Z" fill="#6674C9"/>
<path d="M213.105 69.8182V54.1338H207.299V49.4951H224.165V54.1338H218.389V69.8182H213.105Z" fill="#6674C9"/>
<path d="M237.837 69.8182V59.4972L229.849 69.8182H226.347V49.4951H231.539V59.7871L239.373 49.4951H243.059V69.8182H237.837Z" fill="#6674C9"/>
<path d="M255.345 62.9472L250.86 69.8182H245.269V68.8905L249.877 62.4543C243.272 59.4682 244.532 49.4951 253.072 49.4951H261.428V69.8182H256.205V62.9472H255.345ZM256.205 54.2497H253.195C250 54.2497 250.031 58.4245 253.195 58.4245H256.205V54.2497Z" fill="#6674C9"/>
<path d="M268.708 60.6278L264.714 54.5396H267.848L272.087 59.99H272.886L272.548 60.6278L272.886 61.2366H272.087L267.848 66.716H264.714L268.708 60.6278ZM274.821 60.6278L270.827 54.5396H273.961L278.2 59.99H278.999L278.661 60.6278L278.999 61.2366H278.2L273.961 66.716H270.827L274.821 60.6278Z" fill="#6674C9"/>
<path d="M154.46 34.6089V35.7686C154.46 35.8845 154.399 35.9715 154.245 35.9715H151.173V41.7988C151.173 41.9438 151.112 42.0017 150.958 42.0017H149.207C149.084 42.0017 148.992 41.9438 148.992 41.7988V34.6379C148.992 34.493 149.054 34.435 149.207 34.435H154.215C154.399 34.406 154.46 34.464 154.46 34.6089Z" fill="#6674C9"/>
<path d="M157.255 41.973H155.596C155.473 41.973 155.381 41.915 155.381 41.77V35.16C155.381 34.957 155.412 34.7831 155.473 34.6961C155.535 34.6091 155.658 34.5222 155.842 34.4932C156.18 34.4062 156.548 34.3482 156.948 34.3192C157.347 34.2902 157.777 34.2612 158.207 34.2612C159.252 34.2612 159.989 34.4642 160.45 34.87C160.911 35.2759 161.157 35.8558 161.157 36.6095V37.0444C161.157 37.8272 160.941 38.436 160.542 38.8709C160.143 39.3057 159.436 39.5087 158.484 39.5087C158.3 39.5087 158.115 39.5087 157.931 39.4797C157.747 39.4507 157.562 39.4507 157.378 39.4217V41.77C157.47 41.915 157.378 41.973 157.255 41.973ZM157.808 38.0881C157.931 38.0881 158.054 38.0881 158.177 38.0881C158.576 38.0881 158.822 38.0011 158.975 37.7982C159.129 37.5952 159.19 37.3343 159.19 37.0154V36.7545C159.19 36.4066 159.129 36.1457 158.975 35.9717C158.822 35.7978 158.576 35.7108 158.177 35.7108C158.054 35.7108 157.931 35.7108 157.808 35.7398C157.685 35.7688 157.562 35.7688 157.47 35.7978V38.0881C157.562 38.0591 157.685 38.0591 157.808 38.0881Z" fill="#6674C9"/>
<path d="M166.319 34.4069H168.039C168.162 34.4069 168.254 34.4649 168.254 34.6099V39.9733C168.254 40.3212 168.193 40.6401 168.1 40.93C168.008 41.2199 167.824 41.4229 167.578 41.5968C167.332 41.7708 167.025 41.9157 166.626 42.0027C166.226 42.0897 165.766 42.1187 165.213 42.1187C165.059 42.1187 164.905 42.1187 164.752 42.0897C164.598 42.0607 164.414 42.0607 164.23 42.0317C164.045 42.0027 163.892 41.9737 163.738 41.9447C163.584 41.9157 163.431 41.8867 163.339 41.8577C163.154 41.7998 163.032 41.7128 163.032 41.5678V40.6111C163.032 40.4951 163.093 40.4372 163.216 40.4372C163.738 40.4951 164.291 40.5241 164.813 40.5241C165.305 40.5241 165.643 40.4951 165.827 40.4082C166.011 40.3212 166.104 40.1472 166.104 39.9153V39.7993C165.735 39.9153 165.243 39.9733 164.69 39.9733C164.352 39.9733 164.045 39.9443 163.769 39.8573C163.492 39.7704 163.277 39.6544 163.093 39.4804C162.909 39.3065 162.755 39.0746 162.663 38.7846C162.571 38.4947 162.509 38.1758 162.509 37.7699V34.5809C162.509 34.4359 162.571 34.3779 162.724 34.3779H164.445C164.568 34.3779 164.66 34.4359 164.66 34.5809V37.567C164.66 37.8279 164.721 38.0599 164.844 38.2048C164.967 38.3498 165.182 38.4367 165.52 38.4367C165.612 38.4367 165.735 38.4367 165.827 38.4367C165.919 38.4367 166.042 38.4367 166.134 38.4078V34.6099C166.104 34.4649 166.196 34.4069 166.319 34.4069Z" fill="#6674C9"/>
<path d="M176.58 34.6092V41.7701C176.58 41.9151 176.518 41.973 176.365 41.973H174.614C174.491 41.973 174.399 41.9151 174.399 41.7701V35.9428H172.095V41.7701C172.095 41.9151 172.033 41.973 171.88 41.973H170.129C170.006 41.973 169.914 41.9151 169.914 41.7701V34.6092C169.914 34.4642 169.975 34.4062 170.129 34.4062H176.303C176.488 34.4062 176.58 34.4642 176.58 34.6092Z" fill="#6674C9"/>
<path d="M184.874 34.6092V41.7701C184.874 41.9151 184.812 41.973 184.659 41.973H182.907C182.785 41.973 182.692 41.9151 182.692 41.7701V35.9428H180.388V41.7701C180.388 41.9151 180.327 41.973 180.173 41.973H178.422C178.299 41.973 178.207 41.9151 178.207 41.7701V34.6092C178.207 34.4642 178.269 34.4062 178.422 34.4062H184.597C184.781 34.4062 184.874 34.4642 184.874 34.6092Z" fill="#6674C9"/>
<path d="M190.802 34.4642C190.833 34.4932 190.894 34.5512 190.894 34.6092L192.799 41.7411C192.83 41.8861 192.768 41.973 192.615 41.973H190.894C190.741 41.973 190.679 41.9151 190.648 41.7991L190.372 40.5814H188.314L188.037 41.7991C188.007 41.9151 187.945 41.973 187.791 41.973H186.071C185.918 41.973 185.856 41.8861 185.887 41.7411L187.791 34.6092C187.791 34.5512 187.822 34.4932 187.884 34.4642C187.914 34.4352 188.007 34.4063 188.099 34.4063H190.526C190.679 34.4063 190.741 34.4062 190.802 34.4642ZM190.065 39.1609L189.358 35.9718L188.652 39.1609H190.065Z" fill="#6674C9"/>
<path d="M203.459 34.4646C203.49 34.5226 203.49 34.5806 203.428 34.6385L201.278 38.0305L203.705 41.6835C203.736 41.7414 203.766 41.7994 203.736 41.8574C203.705 41.9154 203.674 41.9444 203.582 41.9444H201.739C201.555 41.9444 201.432 41.8864 201.37 41.7414L199.466 38.5524V41.7124C199.466 41.8574 199.404 41.9154 199.251 41.9154H197.499C197.377 41.9154 197.284 41.8574 197.284 41.7124V34.5516C197.284 34.4066 197.346 34.3486 197.499 34.3486H199.251C199.373 34.3486 199.466 34.4066 199.466 34.5516V37.4217L201.217 34.5226C201.278 34.4066 201.401 34.3486 201.555 34.3486H203.306C203.398 34.4066 203.429 34.4356 203.459 34.4646Z" fill="#6674C9"/>
<path d="M205.026 41.1905C204.473 40.5817 204.197 39.654 204.197 38.4363V37.9725C204.197 36.7548 204.473 35.8271 205.026 35.2183C205.579 34.6094 206.439 34.2905 207.637 34.2905C208.836 34.2905 209.726 34.6094 210.249 35.2183C210.771 35.8271 211.078 36.7548 211.078 37.9725V38.4363C211.078 39.654 210.802 40.5817 210.249 41.1905C209.696 41.7994 208.836 42.1183 207.637 42.1183C206.439 42.1183 205.579 41.7994 205.026 41.1905ZM208.866 37.0158C208.836 36.7258 208.743 36.5229 208.651 36.3489C208.559 36.175 208.436 36.059 208.252 35.972C208.098 35.8851 207.883 35.8561 207.637 35.8561C207.392 35.8561 207.177 35.8851 207.023 35.972C206.869 36.059 206.716 36.175 206.624 36.3489C206.532 36.5229 206.47 36.7548 206.409 37.0158C206.378 37.3057 206.347 37.6246 206.347 38.0305V38.3783C206.347 38.7552 206.378 39.1031 206.409 39.3931C206.439 39.683 206.501 39.8859 206.624 40.0599C206.716 40.2338 206.869 40.3498 207.023 40.4368C207.177 40.5237 207.392 40.5527 207.637 40.5527C207.883 40.5527 208.098 40.5237 208.252 40.4368C208.405 40.3498 208.559 40.2338 208.651 40.0599C208.743 39.8859 208.805 39.654 208.866 39.3931C208.897 39.1031 208.928 38.7842 208.928 38.3783V38.0305C208.928 37.6246 208.897 37.2767 208.866 37.0158Z" fill="#6674C9"/>
<path d="M218.113 34.6672C218.143 34.5802 218.205 34.4932 218.266 34.4642C218.328 34.4352 218.451 34.4062 218.573 34.4062H220.509C220.632 34.4062 220.693 34.4642 220.693 34.5802V41.7991C220.693 41.9151 220.632 41.973 220.509 41.973H218.819C218.696 41.973 218.635 41.9151 218.635 41.7991V37.3054L217.56 39.8277C217.498 40.0016 217.345 40.0886 217.16 40.0886H216.054C215.839 40.0886 215.716 40.0016 215.655 39.8277L214.58 37.3054V41.7991C214.58 41.9151 214.518 41.973 214.395 41.973H212.706C212.583 41.973 212.521 41.9151 212.521 41.7991V34.5802C212.521 34.4642 212.583 34.4062 212.706 34.4062H214.641C214.795 34.4062 214.887 34.4352 214.948 34.4642C215.01 34.4932 215.071 34.5802 215.102 34.6672L216.607 38.0592L218.113 34.6672Z" fill="#6674C9"/>
<path d="M229.019 34.6092V41.7701C229.019 41.9151 228.957 41.973 228.804 41.973H227.083C226.96 41.973 226.868 41.9151 226.868 41.7701V35.9428H224.564V41.7701C224.564 41.9151 224.503 41.973 224.349 41.973H222.598C222.475 41.973 222.383 41.9151 222.383 41.7701V34.6092C222.383 34.4642 222.444 34.4062 222.598 34.4062H228.773C228.957 34.4062 229.019 34.4642 229.019 34.6092Z" fill="#6674C9"/>
<path d="M234.947 34.4642C234.978 34.4932 235.009 34.5512 235.039 34.6092L236.944 41.7411C236.975 41.8861 236.913 41.973 236.76 41.973H235.07C234.916 41.973 234.855 41.9151 234.824 41.7991L234.548 40.5814H232.49L232.213 41.7991C232.182 41.9151 232.121 41.973 231.967 41.973H230.247C230.093 41.973 230.032 41.8861 230.063 41.7411L231.967 34.6092C231.967 34.5512 231.998 34.4932 232.059 34.4642C232.09 34.4352 232.182 34.4063 232.274 34.4063H234.701C234.824 34.4063 234.916 34.4062 234.947 34.4642ZM234.21 39.1609L233.503 35.9718L232.797 39.1609H234.21Z" fill="#6674C9"/>
<path d="M240.169 38.871V41.8281C240.169 41.9441 240.108 42.002 239.985 42.002H238.203C238.08 42.002 238.019 41.9441 238.019 41.8281V34.5802C238.019 34.4642 238.08 34.4062 238.203 34.4062H239.985C240.108 34.4062 240.169 34.4642 240.169 34.5802V37.3054H242.074V34.5802C242.074 34.4642 242.135 34.4062 242.258 34.4062H244.04C244.163 34.4062 244.224 34.4642 244.224 34.5802V41.7991C244.224 41.9151 244.163 41.9731 244.04 41.9731H242.258C242.135 41.9731 242.074 41.9151 242.074 41.7991V38.842H240.169V38.871Z" fill="#6674C9"/>
<path d="M250.278 34.4062H252.428C252.551 34.4062 252.612 34.4642 252.612 34.5802V41.7701C252.612 41.9151 252.551 41.973 252.397 41.973H250.738C250.615 41.973 250.523 41.9151 250.523 41.7701V37.1894L248.742 41.6831C248.68 41.8571 248.496 41.973 248.25 41.973H246.1C245.977 41.973 245.915 41.9151 245.915 41.7991V34.6092C245.915 34.4642 245.977 34.4062 246.13 34.4062H247.789C247.912 34.4062 248.004 34.4642 248.004 34.6092V39.1609L249.786 34.6672C249.878 34.4932 250.032 34.4062 250.278 34.4062Z" fill="#6674C9"/>
<path d="M258.633 34.4063H260.784C260.907 34.4063 260.968 34.4643 260.968 34.5802V41.7702C260.968 41.9151 260.907 41.9731 260.753 41.9731H259.094C258.971 41.9731 258.879 41.9151 258.879 41.7702V37.1895L257.097 41.6832C257.036 41.8571 256.852 41.9731 256.606 41.9731H254.455C254.332 41.9731 254.271 41.9151 254.271 41.7992V34.6092C254.271 34.4643 254.332 34.4063 254.486 34.4063H256.145C256.268 34.4063 256.36 34.4643 256.36 34.6092V39.1609L258.142 34.6672C258.203 34.4933 258.388 34.4063 258.633 34.4063ZM256.759 33.7685C256.514 33.6815 256.268 33.5655 256.114 33.4206C255.93 33.2756 255.776 33.1017 255.684 32.8697C255.592 32.6668 255.531 32.4059 255.531 32.174C255.531 32.058 255.592 32 255.715 32H256.391C256.452 32 256.514 32 256.544 32.058C256.575 32.087 256.606 32.116 256.606 32.174C256.636 32.3769 256.759 32.5508 256.944 32.6668C257.128 32.7828 257.343 32.8408 257.62 32.8408C257.896 32.8408 258.111 32.7828 258.295 32.6668C258.48 32.5508 258.603 32.3769 258.633 32.174C258.633 32.116 258.664 32.087 258.695 32.058C258.725 32.029 258.756 32 258.848 32H259.524C259.647 32 259.708 32.058 259.708 32.174C259.708 32.4349 259.647 32.6668 259.555 32.8697C259.463 33.0727 259.309 33.2756 259.125 33.4206C258.94 33.5655 258.725 33.6815 258.48 33.7685C258.234 33.8555 257.927 33.8844 257.65 33.8844C257.374 33.8844 257.036 33.8555 256.759 33.7685Z" fill="#6674C9"/>
<g clip-path="url(#clip0)">
<path d="M6.16382 71.4523L20.9794 77.4498V38.5092L56.3175 17.0864L91.5644 38.4229V77.4498L106.38 71.4523V30.9368L56.2719 0L6.16382 30.7426V71.4523Z" fill="#FF6915"/>
<path d="M0 75.061C0 75.061 22.2804 88.4583 56.2717 88.4583C90.263 88.4583 113 75.061 113 75.061C113 75.061 91.1762 100.259 57.436 100.259C23.3077 100.259 0 75.061 0 75.061Z" fill="#FF6915"/>
<path d="M30.1554 53.2442L26.8682 52.5539V50.4181L46.0211 33.3101L67.1829 57.5374L85.1031 50.6985V53.2226L83.1171 54.0856V68.9715L65.9502 78.4208V60.7087L63.4847 60.0831V79.3053L30.2011 71.5819L30.1554 53.2442Z" fill="#6674C9"/>
<path d="M48.259 32.641L68.074 55.1424L84.5788 48.9292L67.8913 29.3618L48.259 32.641Z" fill="#FF6915"/>
<path d="M31.0466 74.2787L62.5496 81.6785V83.0592L31.0466 75.6594V74.2787ZM30.1106 73.1353V76.3497L63.4856 84.181V80.9665L30.1106 73.1353Z" fill="#FF6915"/>
<path d="M82.1594 72.4015V73.5664L66.8416 82.1097V80.9447L82.1594 72.4015ZM83.1182 70.8481L65.9285 80.4485V83.663L83.1182 74.0626V70.8481Z" fill="#FF6915"/>
</g>
<defs>
<clipPath id="clip0">
<rect width="113" height="100" fill="white"/>
</clipPath>
</defs>
</svg>
