<svg width="110" height="110" viewBox="0 0 110 110" fill="none" xmlns="http://www.w3.org/2000/svg">
<g clip-path="url(#clip0)">
<path d="M88.0089 38.7013C88.0089 46.7193 81.509 53.2192 73.4885 53.2192H20.9449C10.2841 53.2192 1.63916 44.5767 1.63916 33.9126C1.63916 23.2518 10.2841 14.6069 20.9449 14.6069C21.9016 14.6069 22.8416 14.6807 23.763 14.8142C28.1237 6.15578 37.0892 0.214844 47.4487 0.214844C59.9818 0.214844 70.4823 8.91686 73.2401 20.6082C73.5153 21.7748 73.7142 22.9707 73.8292 24.1892V24.1918C81.6886 24.3722 88.0089 30.7982 88.0089 38.7013Z" fill="#84ABC1"/>
<path d="M56.6593 1.86215C53.79 0.796326 50.6856 0.215576 47.4479 0.215576C37.0892 0.215576 28.1262 6.15735 23.763 14.8124V14.8149C22.8416 14.6814 21.9016 14.6076 20.9449 14.6076C10.2807 14.6076 1.63916 23.2525 1.63916 33.9133C1.63916 44.5775 10.2807 53.2199 20.9449 53.2199H30.2763C20.6671 53.2199 12.8807 45.431 12.8807 35.8243C12.8807 27.2993 19.013 20.2053 27.1091 18.7173C27.9105 18.5679 28.7313 18.4756 29.568 18.4421C29.8022 18.4345 30.0388 18.4286 30.2763 18.4286C33.3991 18.4286 36.3322 19.2519 38.8634 20.6962C38.5117 18.2457 35.9781 15.9495 32.2427 14.0999C34.2937 7.16191 41.2745 0.728348 56.6593 1.86215Z" fill="#4D87A1"/>
<path d="M110 66.6914C110 73.1753 104.743 78.4323 98.2566 78.4323H55.7629C47.1406 78.4323 40.1489 71.4432 40.1489 62.8183C40.1489 54.1961 47.1406 47.2052 55.7629 47.2052C56.5366 47.2052 57.297 47.2648 58.0414 47.3723C61.5678 40.3705 68.8197 35.5659 77.1969 35.5659C87.3332 35.5659 95.8254 42.6029 98.056 52.0585C98.2784 53.0018 98.4396 53.9695 98.5327 54.9547V54.9564C104.889 55.1024 110 60.299 110 66.6914Z" fill="#D3DDEA"/>
<path d="M84.6468 36.8977C82.3263 36.0358 79.8153 35.5667 77.1969 35.5667C68.8197 35.5667 61.5704 40.3713 58.0414 47.3713V47.3738C57.297 47.2656 56.5366 47.206 55.7629 47.206C47.1381 47.206 40.1489 54.1968 40.1489 62.8191C40.1489 71.4439 47.1381 78.433 55.7629 78.433H63.3093C55.538 78.433 49.2412 72.1337 49.2412 64.3641C49.2412 57.4698 54.2002 51.7328 60.7479 50.5294C61.3966 50.4085 62.0596 50.3338 62.7361 50.307C62.9257 50.3002 63.1179 50.296 63.3093 50.296C65.8354 50.296 68.207 50.9616 70.2548 52.1298C69.9703 50.1475 67.9209 48.2911 64.8996 46.7948C66.5588 41.1845 72.2043 35.9812 84.6468 36.8977Z" fill="#84ABC1"/>
<path d="M71.3005 109.899C70.9053 109.899 70.5083 109.758 70.1928 109.472C69.5155 108.86 69.4626 107.815 70.0753 107.137L92.0598 82.8206C92.6725 82.1433 93.7182 82.0904 94.3954 82.7022C95.0727 83.3149 95.1247 84.3606 94.5129 85.037L72.5275 109.355C72.201 109.715 71.7512 109.899 71.3005 109.899Z" fill="#D3DDEA"/>
<path d="M55.8744 109.899C55.4791 109.899 55.0822 109.758 54.7658 109.472C54.0885 108.86 54.0356 107.815 54.6483 107.137L76.6228 82.8331C77.2346 82.1558 78.2803 82.1038 78.9575 82.7156C79.6348 83.3282 79.6868 84.373 79.075 85.0503L57.1005 109.355C56.7749 109.715 56.3251 109.899 55.8744 109.899Z" fill="#D3DDEA"/>
<path d="M40.4458 109.899C40.0506 109.899 39.6536 109.758 39.3372 109.472C38.6599 108.86 38.6079 107.814 39.2197 107.137L61.1967 82.833C61.8094 82.1566 62.8542 82.1037 63.5315 82.7155C64.2087 83.3282 64.2608 84.3738 63.649 85.0503L41.672 109.354C41.3463 109.715 40.8965 109.899 40.4458 109.899Z" fill="#D3DDEA"/>
<path d="M25.02 109.899C24.6247 109.899 24.2277 109.758 23.9122 109.472C23.2341 108.86 23.182 107.815 23.7938 107.137L46.0285 82.5445C46.6403 81.8672 47.686 81.8152 48.3632 82.427C49.0405 83.0396 49.0934 84.0845 48.4807 84.7617L26.2469 109.355C25.9205 109.716 25.4706 109.899 25.02 109.899Z" fill="#D3DDEA"/>
<path d="M9.59327 109.899C9.198 109.899 8.80188 109.758 8.48549 109.472C7.80822 108.86 7.75535 107.815 8.36799 107.137L36.291 76.2545C36.9028 75.5773 37.9485 75.5244 38.6257 76.137C39.303 76.7497 39.3559 77.7945 38.7432 78.4718L10.8202 109.355C10.4938 109.716 10.0448 109.899 9.59327 109.899Z" fill="#D3DDEA"/>
<path d="M1.65236 101.621C1.25708 101.621 0.860959 101.48 0.544568 101.194C-0.132694 100.581 -0.185566 99.5366 0.427075 98.8593L34.7484 60.9008C35.3602 60.2235 36.4059 60.1706 37.0831 60.7833C37.7604 61.3959 37.8124 62.4416 37.2006 63.118L2.87932 101.077C2.55285 101.437 2.10302 101.621 1.65236 101.621Z" fill="#D3DDEA"/>
<path d="M1.65236 84.5569C1.25708 84.5569 0.860959 84.4159 0.544568 84.1298C-0.132694 83.518 -0.185566 82.4723 0.427075 81.795L22.2841 57.6217C22.8967 56.9445 23.9416 56.8916 24.6188 57.5042C25.2961 58.116 25.349 59.1617 24.7363 59.839L2.87932 84.0123C2.55285 84.374 2.10302 84.5569 1.65236 84.5569Z" fill="#D3DDEA"/>
</g>
<defs>
<clipPath id="clip0">
<rect width="110" height="110" fill="white"/>
</clipPath>
</defs>
</svg>
