<svg width="268" height="100" viewBox="0 0 268 100" fill="none" xmlns="http://www.w3.org/2000/svg">
<g clip-path="url(#clip0)">
<path d="M6.16382 71.4523L20.9794 77.4498V38.5092L56.3175 17.0864L91.5644 38.4229V77.4498L106.38 71.4523V30.9368L56.2719 0L6.16382 30.7426V71.4523Z" fill="white"/>
<path d="M0 75.061C0 75.061 22.2804 88.4583 56.2717 88.4583C90.263 88.4583 113 75.061 113 75.061C113 75.061 91.1762 100.259 57.436 100.259C23.3077 100.259 0 75.061 0 75.061Z" fill="white"/>
<path d="M30.1554 53.2442L26.8682 52.5539V50.4181L46.0211 33.3101L67.1829 57.5374L85.1031 50.6985V53.2226L83.1171 54.0856V68.9715L65.9502 78.4208V60.7087L63.4847 60.0831V79.3053L30.2011 71.5819L30.1554 53.2442Z" fill="white"/>
<path d="M48.259 32.641L68.074 55.1424L84.5788 48.9292L67.8913 29.3618L48.259 32.641Z" fill="white"/>
<path d="M31.0466 74.2787L62.5496 81.6785V83.0592L31.0466 75.6594V74.2787ZM30.1106 73.1353V76.3497L63.4856 84.181V80.9665L30.1106 73.1353Z" fill="white"/>
<path d="M82.1594 72.4015V73.5664L66.8416 82.1097V80.9447L82.1594 72.4015ZM83.1182 70.8481L65.9285 80.4485V83.663L83.1182 74.0626V70.8481Z" fill="white"/>
</g>
<path d="M126.779 71.2076L130.311 77.8467H127.209L123 71.3526V71.0337L127.209 64.5396H130.342L126.779 71.2076ZM132.708 71.2076L136.24 77.8467H133.138L128.929 71.3526V71.0337L133.138 64.5396H136.271L132.708 71.2076Z" fill="white"/>
<path d="M153.629 59.4951V79.8182H148.376V64.2787H142.723V79.8182H137.47V59.4951H153.629Z" fill="white"/>
<path d="M170.155 76.8326H162.813L161.615 79.8187H155.993L164.595 59.2637H168.343L177.313 79.8187H171.384L170.155 76.8326ZM164.902 71.73L164.718 72.1939H168.281L168.158 71.846L166.5 67.4393L164.902 71.73Z" fill="white"/>
<path d="M186.959 59.4951C197.066 59.4951 197.035 73.788 186.959 73.788H183.979V79.8182H178.726V59.4951H186.959ZM186.959 69.0913C190.215 69.0913 190.215 64.3077 186.959 64.3077H183.979V69.0913H186.959Z" fill="white"/>
<path d="M202.105 79.8182V64.1338H196.299V59.4951H213.165V64.1338H207.389V79.8182H202.105Z" fill="white"/>
<path d="M226.837 79.8182V69.4972L218.849 79.8182H215.347V59.4951H220.539V69.7871L228.373 59.4951H232.059V79.8182H226.837Z" fill="white"/>
<path d="M244.345 72.9472L239.86 79.8182H234.269V78.8905L238.877 72.4543C232.272 69.4682 233.532 59.4951 242.072 59.4951H250.428V79.8182H245.205V72.9472H244.345ZM245.205 64.2497H242.195C239 64.2497 239.031 68.4245 242.195 68.4245H245.205V64.2497Z" fill="white"/>
<path d="M257.708 70.6278L253.714 64.5396H256.848L261.087 69.99H261.886L261.548 70.6278L261.886 71.2366H261.087L256.848 76.716H253.714L257.708 70.6278ZM263.821 70.6278L259.827 64.5396H262.961L267.2 69.99H267.999L267.661 70.6278L267.999 71.2366H267.2L262.961 76.716H259.827L263.821 70.6278Z" fill="white"/>
<path d="M143.46 44.6089V45.7686C143.46 45.8845 143.399 45.9715 143.245 45.9715H140.173V51.7988C140.173 51.9438 140.112 52.0017 139.958 52.0017H138.207C138.084 52.0017 137.992 51.9438 137.992 51.7988V44.6379C137.992 44.493 138.054 44.435 138.207 44.435H143.215C143.399 44.406 143.46 44.464 143.46 44.6089Z" fill="white"/>
<path d="M146.255 51.973H144.596C144.473 51.973 144.381 51.915 144.381 51.77V45.16C144.381 44.957 144.412 44.7831 144.473 44.6961C144.535 44.6091 144.658 44.5222 144.842 44.4932C145.18 44.4062 145.548 44.3482 145.948 44.3192C146.347 44.2902 146.777 44.2612 147.207 44.2612C148.252 44.2612 148.989 44.4642 149.45 44.87C149.911 45.2759 150.157 45.8558 150.157 46.6095V47.0444C150.157 47.8272 149.941 48.436 149.542 48.8709C149.143 49.3057 148.436 49.5087 147.484 49.5087C147.3 49.5087 147.115 49.5087 146.931 49.4797C146.747 49.4507 146.562 49.4507 146.378 49.4217V51.77C146.47 51.915 146.378 51.973 146.255 51.973ZM146.808 48.0881C146.931 48.0881 147.054 48.0881 147.177 48.0881C147.576 48.0881 147.822 48.0011 147.975 47.7982C148.129 47.5952 148.19 47.3343 148.19 47.0154V46.7545C148.19 46.4066 148.129 46.1457 147.975 45.9717C147.822 45.7978 147.576 45.7108 147.177 45.7108C147.054 45.7108 146.931 45.7108 146.808 45.7398C146.685 45.7688 146.562 45.7688 146.47 45.7978V48.0881C146.562 48.0591 146.685 48.0591 146.808 48.0881Z" fill="white"/>
<path d="M155.319 44.4069H157.039C157.162 44.4069 157.254 44.4649 157.254 44.6099V49.9733C157.254 50.3212 157.193 50.6401 157.1 50.93C157.008 51.2199 156.824 51.4229 156.578 51.5968C156.332 51.7708 156.025 51.9157 155.626 52.0027C155.226 52.0897 154.766 52.1187 154.213 52.1187C154.059 52.1187 153.905 52.1187 153.752 52.0897C153.598 52.0607 153.414 52.0607 153.23 52.0317C153.045 52.0027 152.892 51.9737 152.738 51.9447C152.584 51.9157 152.431 51.8867 152.339 51.8577C152.154 51.7998 152.032 51.7128 152.032 51.5678V50.6111C152.032 50.4951 152.093 50.4372 152.216 50.4372C152.738 50.4951 153.291 50.5241 153.813 50.5241C154.305 50.5241 154.643 50.4951 154.827 50.4082C155.011 50.3212 155.104 50.1472 155.104 49.9153V49.7993C154.735 49.9153 154.243 49.9733 153.69 49.9733C153.352 49.9733 153.045 49.9443 152.769 49.8573C152.492 49.7704 152.277 49.6544 152.093 49.4804C151.909 49.3065 151.755 49.0746 151.663 48.7846C151.571 48.4947 151.509 48.1758 151.509 47.7699V44.5809C151.509 44.4359 151.571 44.3779 151.724 44.3779H153.445C153.568 44.3779 153.66 44.4359 153.66 44.5809V47.567C153.66 47.8279 153.721 48.0599 153.844 48.2048C153.967 48.3498 154.182 48.4367 154.52 48.4367C154.612 48.4367 154.735 48.4367 154.827 48.4367C154.919 48.4367 155.042 48.4367 155.134 48.4078V44.6099C155.104 44.4649 155.196 44.4069 155.319 44.4069Z" fill="white"/>
<path d="M165.58 44.6092V51.7701C165.58 51.9151 165.518 51.973 165.365 51.973H163.614C163.491 51.973 163.399 51.9151 163.399 51.7701V45.9428H161.095V51.7701C161.095 51.9151 161.033 51.973 160.88 51.973H159.129C159.006 51.973 158.914 51.9151 158.914 51.7701V44.6092C158.914 44.4642 158.975 44.4062 159.129 44.4062H165.303C165.488 44.4062 165.58 44.4642 165.58 44.6092Z" fill="white"/>
<path d="M173.874 44.6092V51.7701C173.874 51.9151 173.812 51.973 173.659 51.973H171.907C171.785 51.973 171.692 51.9151 171.692 51.7701V45.9428H169.388V51.7701C169.388 51.9151 169.327 51.973 169.173 51.973H167.422C167.299 51.973 167.207 51.9151 167.207 51.7701V44.6092C167.207 44.4642 167.269 44.4062 167.422 44.4062H173.597C173.781 44.4062 173.874 44.4642 173.874 44.6092Z" fill="white"/>
<path d="M179.802 44.4642C179.833 44.4932 179.894 44.5512 179.894 44.6092L181.799 51.7411C181.83 51.8861 181.768 51.973 181.615 51.973H179.894C179.741 51.973 179.679 51.9151 179.648 51.7991L179.372 50.5814H177.314L177.037 51.7991C177.007 51.9151 176.945 51.973 176.791 51.973H175.071C174.918 51.973 174.856 51.8861 174.887 51.7411L176.791 44.6092C176.791 44.5512 176.822 44.4932 176.884 44.4642C176.914 44.4352 177.007 44.4063 177.099 44.4063H179.526C179.679 44.4063 179.741 44.4062 179.802 44.4642ZM179.065 49.1609L178.358 45.9718L177.652 49.1609H179.065Z" fill="white"/>
<path d="M192.459 44.4646C192.49 44.5226 192.49 44.5806 192.428 44.6385L190.278 48.0305L192.705 51.6835C192.736 51.7414 192.766 51.7994 192.736 51.8574C192.705 51.9154 192.674 51.9444 192.582 51.9444H190.739C190.555 51.9444 190.432 51.8864 190.37 51.7414L188.466 48.5524V51.7124C188.466 51.8574 188.404 51.9154 188.251 51.9154H186.499C186.377 51.9154 186.284 51.8574 186.284 51.7124V44.5516C186.284 44.4066 186.346 44.3486 186.499 44.3486H188.251C188.373 44.3486 188.466 44.4066 188.466 44.5516V47.4217L190.217 44.5226C190.278 44.4066 190.401 44.3486 190.555 44.3486H192.306C192.398 44.4066 192.429 44.4356 192.459 44.4646Z" fill="white"/>
<path d="M194.026 51.1905C193.473 50.5817 193.197 49.654 193.197 48.4363V47.9725C193.197 46.7548 193.473 45.8271 194.026 45.2183C194.579 44.6094 195.439 44.2905 196.637 44.2905C197.836 44.2905 198.726 44.6094 199.249 45.2183C199.771 45.8271 200.078 46.7548 200.078 47.9725V48.4363C200.078 49.654 199.802 50.5817 199.249 51.1905C198.696 51.7994 197.836 52.1183 196.637 52.1183C195.439 52.1183 194.579 51.7994 194.026 51.1905ZM197.866 47.0158C197.836 46.7258 197.743 46.5229 197.651 46.3489C197.559 46.175 197.436 46.059 197.252 45.972C197.098 45.8851 196.883 45.8561 196.637 45.8561C196.392 45.8561 196.177 45.8851 196.023 45.972C195.869 46.059 195.716 46.175 195.624 46.3489C195.532 46.5229 195.47 46.7548 195.409 47.0158C195.378 47.3057 195.347 47.6246 195.347 48.0305V48.3783C195.347 48.7552 195.378 49.1031 195.409 49.3931C195.439 49.683 195.501 49.8859 195.624 50.0599C195.716 50.2338 195.869 50.3498 196.023 50.4368C196.177 50.5237 196.392 50.5527 196.637 50.5527C196.883 50.5527 197.098 50.5237 197.252 50.4368C197.405 50.3498 197.559 50.2338 197.651 50.0599C197.743 49.8859 197.805 49.654 197.866 49.3931C197.897 49.1031 197.928 48.7842 197.928 48.3783V48.0305C197.928 47.6246 197.897 47.2767 197.866 47.0158Z" fill="white"/>
<path d="M207.113 44.6672C207.143 44.5802 207.205 44.4932 207.266 44.4642C207.328 44.4352 207.451 44.4062 207.573 44.4062H209.509C209.632 44.4062 209.693 44.4642 209.693 44.5802V51.7991C209.693 51.9151 209.632 51.973 209.509 51.973H207.819C207.696 51.973 207.635 51.9151 207.635 51.7991V47.3054L206.56 49.8277C206.498 50.0016 206.345 50.0886 206.16 50.0886H205.054C204.839 50.0886 204.716 50.0016 204.655 49.8277L203.58 47.3054V51.7991C203.58 51.9151 203.518 51.973 203.395 51.973H201.706C201.583 51.973 201.521 51.9151 201.521 51.7991V44.5802C201.521 44.4642 201.583 44.4062 201.706 44.4062H203.641C203.795 44.4062 203.887 44.4352 203.948 44.4642C204.01 44.4932 204.071 44.5802 204.102 44.6672L205.607 48.0592L207.113 44.6672Z" fill="white"/>
<path d="M218.019 44.6092V51.7701C218.019 51.9151 217.957 51.973 217.804 51.973H216.083C215.96 51.973 215.868 51.9151 215.868 51.7701V45.9428H213.564V51.7701C213.564 51.9151 213.503 51.973 213.349 51.973H211.598C211.475 51.973 211.383 51.9151 211.383 51.7701V44.6092C211.383 44.4642 211.444 44.4062 211.598 44.4062H217.773C217.957 44.4062 218.019 44.4642 218.019 44.6092Z" fill="white"/>
<path d="M223.947 44.4642C223.978 44.4932 224.009 44.5512 224.039 44.6092L225.944 51.7411C225.975 51.8861 225.913 51.973 225.76 51.973H224.07C223.916 51.973 223.855 51.9151 223.824 51.7991L223.548 50.5814H221.49L221.213 51.7991C221.182 51.9151 221.121 51.973 220.967 51.973H219.247C219.093 51.973 219.032 51.8861 219.063 51.7411L220.967 44.6092C220.967 44.5512 220.998 44.4932 221.059 44.4642C221.09 44.4352 221.182 44.4063 221.274 44.4063H223.701C223.824 44.4063 223.916 44.4062 223.947 44.4642ZM223.21 49.1609L222.503 45.9718L221.797 49.1609H223.21Z" fill="white"/>
<path d="M229.169 48.871V51.8281C229.169 51.9441 229.108 52.002 228.985 52.002H227.203C227.08 52.002 227.019 51.9441 227.019 51.8281V44.5802C227.019 44.4642 227.08 44.4062 227.203 44.4062H228.985C229.108 44.4062 229.169 44.4642 229.169 44.5802V47.3054H231.074V44.5802C231.074 44.4642 231.135 44.4062 231.258 44.4062H233.04C233.163 44.4062 233.224 44.4642 233.224 44.5802V51.7991C233.224 51.9151 233.163 51.9731 233.04 51.9731H231.258C231.135 51.9731 231.074 51.9151 231.074 51.7991V48.842H229.169V48.871Z" fill="white"/>
<path d="M239.278 44.4062H241.428C241.551 44.4062 241.612 44.4642 241.612 44.5802V51.7701C241.612 51.9151 241.551 51.973 241.397 51.973H239.738C239.615 51.973 239.523 51.9151 239.523 51.7701V47.1894L237.742 51.6831C237.68 51.8571 237.496 51.973 237.25 51.973H235.1C234.977 51.973 234.915 51.9151 234.915 51.7991V44.6092C234.915 44.4642 234.977 44.4062 235.13 44.4062H236.789C236.912 44.4062 237.004 44.4642 237.004 44.6092V49.1609L238.786 44.6672C238.878 44.4932 239.032 44.4062 239.278 44.4062Z" fill="white"/>
<path d="M247.633 44.4063H249.784C249.907 44.4063 249.968 44.4643 249.968 44.5802V51.7702C249.968 51.9151 249.907 51.9731 249.753 51.9731H248.094C247.971 51.9731 247.879 51.9151 247.879 51.7702V47.1895L246.097 51.6832C246.036 51.8571 245.852 51.9731 245.606 51.9731H243.455C243.332 51.9731 243.271 51.9151 243.271 51.7992V44.6092C243.271 44.4643 243.332 44.4063 243.486 44.4063H245.145C245.268 44.4063 245.36 44.4643 245.36 44.6092V49.1609L247.142 44.6672C247.203 44.4933 247.388 44.4063 247.633 44.4063ZM245.759 43.7685C245.514 43.6815 245.268 43.5655 245.114 43.4206C244.93 43.2756 244.776 43.1017 244.684 42.8697C244.592 42.6668 244.531 42.4059 244.531 42.174C244.531 42.058 244.592 42 244.715 42H245.391C245.452 42 245.514 42 245.544 42.058C245.575 42.087 245.606 42.116 245.606 42.174C245.636 42.3769 245.759 42.5508 245.944 42.6668C246.128 42.7828 246.343 42.8408 246.62 42.8408C246.896 42.8408 247.111 42.7828 247.295 42.6668C247.48 42.5508 247.603 42.3769 247.633 42.174C247.633 42.116 247.664 42.087 247.695 42.058C247.725 42.029 247.756 42 247.848 42H248.524C248.647 42 248.708 42.058 248.708 42.174C248.708 42.4349 248.647 42.6668 248.555 42.8697C248.463 43.0727 248.309 43.2756 248.125 43.4206C247.94 43.5655 247.725 43.6815 247.48 43.7685C247.234 43.8555 246.927 43.8844 246.65 43.8844C246.374 43.8844 246.036 43.8555 245.759 43.7685Z" fill="white"/>
<defs>
<clipPath id="clip0">
<rect width="113" height="100" fill="white"/>
</clipPath>
</defs>
</svg>
