<?xml version="1.0" standalone="no"?>
<!DOCTYPE svg PUBLIC "-//W3C//DTD SVG 20010904//EN"
 "http://www.w3.org/TR/2001/REC-SVG-20010904/DTD/svg10.dtd">
<svg version="1.0" xmlns="http://www.w3.org/2000/svg"
 width="260.000000pt" height="260.000000pt" viewBox="0 0 260.000000 260.000000"
 preserveAspectRatio="xMidYMid meet">
<metadata>
Created by potrace 1.11, written by Peter Selinger 2001-2013
</metadata>
<g transform="translate(0.000000,260.000000) scale(0.100000,-0.100000)"
fill="#000000" stroke="none">
<path d="M1181 2390 c-62 -39 -115 -70 -117 -70 -3 0 -10 -5 -17 -10 -22 -20
-628 -390 -638 -390 -5 0 -9 -4 -9 -10 0 -5 -4 -10 -9 -10 -5 0 -63 -34 -129
-76 l-120 -75 2 -471 1 -470 120 -50 c66 -27 127 -51 135 -54 8 -3 30 -12 47
-20 25 -10 33 -11 34 -1 0 6 2 209 2 449 1 277 6 440 12 446 6 5 80 51 165
102 85 51 262 158 393 238 161 98 243 142 254 138 9 -4 89 -51 178 -105 88
-54 264 -161 390 -238 l230 -140 1 -429 c1 -236 2 -439 3 -451 1 -20 10 -17
169 47 l167 68 1 469 1 469 -555 345 c-305 189 -565 349 -577 356 -19 11 -35
4 -134 -57z"/>
<path d="M1485 1768 c-27 -5 -59 -10 -70 -12 -26 -4 -106 -18 -126 -21 -9 -2
-38 -6 -65 -10 -27 -3 -63 -9 -81 -13 l-32 -7 32 -36 c18 -20 52 -60 77 -89
25 -29 61 -69 80 -90 19 -21 44 -48 54 -61 24 -30 140 -162 182 -208 l32 -34
168 63 c93 34 179 67 191 71 l23 8 -23 23 c-12 13 -65 74 -117 137 -52 62
-103 123 -113 134 -10 12 -37 44 -60 72 -60 71 -75 85 -89 84 -7 -1 -35 -5
-63 -11z"/>
<path d="M1015 1652 c-22 -20 -81 -73 -130 -117 -50 -44 -102 -91 -116 -105
-15 -14 -52 -47 -84 -75 -31 -27 -61 -59 -65 -70 -9 -23 5 -45 29 -45 44 -1
46 -8 46 -227 l0 -207 270 -63 c149 -35 280 -65 293 -67 12 -3 30 -7 40 -10 9
-3 28 -7 42 -10 14 -2 45 -9 69 -16 23 -6 45 -9 48 -7 2 3 5 102 5 221 0 132
4 216 10 216 5 0 17 -4 27 -10 17 -8 18 -26 17 -205 -1 -171 0 -195 14 -195 9
0 24 6 35 13 11 8 52 31 90 52 39 21 93 50 120 65 28 15 69 38 93 50 23 12 42
29 43 39 1 9 2 88 2 175 2 153 3 159 24 169 15 7 21 17 19 36 -1 14 -7 25 -12
24 -5 -1 -96 -36 -203 -77 l-193 -74 -37 39 c-20 22 -40 45 -46 52 -17 21
-130 152 -135 157 -3 3 -51 57 -105 120 -55 63 -116 132 -135 152 l-35 38 -40
-38z"/>
<path d="M1875 802 c-16 -10 -64 -37 -105 -59 -41 -22 -104 -57 -140 -77 -36
-21 -76 -43 -90 -51 -18 -10 -24 -21 -24 -47 0 -22 4 -32 13 -30 7 1 66 33
130 69 64 36 141 80 171 96 73 39 88 56 81 89 l-6 28 -30 -18z m13 -34 c-4
-10 -56 -42 -218 -131 -30 -16 -70 -38 -88 -49 -48 -29 -63 -16 -17 15 56 36
308 176 318 177 5 0 7 -5 5 -12z"/>
<path d="M698 763 c-3 -4 -5 -20 -6 -35 -2 -25 12 -38 48 -43 8 -1 67 -15 130
-31 63 -15 117 -29 120 -29 37 -9 120 -26 135 -29 11 -2 40 -9 65 -16 25 -7
52 -13 60 -15 8 -2 42 -10 75 -18 70 -19 134 -25 135 -14 3 48 -1 54 -37 65
-33 9 -103 26 -153 37 -13 3 -122 28 -172 41 -10 2 -27 6 -38 8 -94 21 -334
78 -345 82 -7 3 -15 2 -17 -3z m91 -37 c31 -8 67 -17 81 -19 14 -3 124 -29
245 -57 121 -29 242 -58 270 -64 31 -7 51 -17 53 -27 4 -19 -12 -17 -178 25
-58 15 -118 29 -135 32 -16 3 -48 10 -70 15 -22 6 -59 14 -81 19 -23 5 -79 19
-125 30 -46 12 -92 23 -102 25 -23 5 -37 14 -37 26 0 12 12 11 79 -5z"/>
<path d="M30 696 c68 -72 233 -196 395 -298 123 -77 365 -173 540 -214 109
-26 140 -28 330 -31 306 -3 471 33 740 162 188 91 352 203 490 337 l70 68 -95
-44 c-149 -70 -376 -148 -525 -181 -428 -94 -807 -103 -1215 -28 -115 21 -107
19 -180 38 -36 9 -72 18 -80 20 -91 20 -314 106 -435 167 l-60 31 25 -27z"/>
</g>
</svg>
