<svg xmlns="http://www.w3.org/2000/svg" xmlns:xlink="http://www.w3.org/1999/xlink"><symbol id="icon-arrow-small" viewBox="0 0 12 23">
<path d="M0.185078 11.0415L10.9015 0.191596C11.1538 -0.0638655 11.5584 -0.0638655 11.8108 0.191596C12.0631 0.447058 12.0631 0.856761 11.8108 1.11222L1.5514 11.4994L11.8108 21.8866C12.0631 22.142 12.0631 22.5517 11.8108 22.8072C11.687 22.9325 11.5204 23 11.3585 23C11.1966 23 11.03 22.9373 10.9062 22.8072L0.189837 11.9573C-0.0624809 11.7067 -0.06248 11.2921 0.185078 11.0415Z" fill="currentColor"/>
</symbol><symbol id="icon-basket" viewBox="0 0 23 23">
<path d="M6.9 18.4C5.635 18.4 4.6 19.435 4.6 20.7C4.6 21.965 5.635 23 6.9 23C8.165 23 9.2 21.965 9.2 20.7C9.2 19.435 8.165 18.4 6.9 18.4ZM0 0V2.3H2.3L6.44 11.04L4.83 13.8C4.715 14.145 4.6 14.605 4.6 14.95C4.6 16.215 5.635 17.25 6.9 17.25H20.7V14.95H7.36C7.245 14.95 7.13 14.835 7.13 14.72V14.605L8.165 12.65H16.675C17.595 12.65 18.285 12.19 18.63 11.5L22.77 4.025C23 3.795 23 3.68 23 3.45C23 2.76 22.54 2.3 21.85 2.3H4.83L3.795 0H0ZM18.4 18.4C17.135 18.4 16.1 19.435 16.1 20.7C16.1 21.965 17.135 23 18.4 23C19.665 23 20.7 21.965 20.7 20.7C20.7 19.435 19.665 18.4 18.4 18.4Z" fill="currentColor"/>
</symbol><symbol id="icon-insta-2" viewBox="0 0 36 36">
<circle cx="17.6" cy="18.1229" r="17.6" fill="currentColor"/>
<path d="M21.9018 8.52295H13.2988C10.3773 8.52295 8.00049 10.8999 8.00049 13.8214V22.4244C8.00049 25.346 10.3773 27.7228 13.2988 27.7228H21.9018C24.8235 27.7228 27.2004 25.3459 27.2004 22.4244V13.8214C27.2005 10.8999 24.8235 8.52295 21.9018 8.52295ZM25.497 22.4244C25.497 24.4067 23.8842 26.0193 21.9019 26.0193H13.2988C11.3166 26.0194 9.704 24.4067 9.704 22.4244V13.8214C9.704 11.8392 11.3166 10.2265 13.2988 10.2265H21.9018C23.8841 10.2265 25.4969 11.8392 25.4969 13.8214V22.4244H25.497Z" fill="#CFAA7C"/>
<path d="M17.6006 13.1758C14.8726 13.1758 12.6533 15.3951 12.6533 18.1231C12.6533 20.851 14.8726 23.0702 17.6006 23.0702C20.3286 23.0702 22.548 20.851 22.548 18.1231C22.548 15.3951 20.3286 13.1758 17.6006 13.1758ZM17.6006 21.3666C15.8121 21.3666 14.3568 19.9116 14.3568 18.123C14.3568 16.3343 15.812 14.8792 17.6006 14.8792C19.3893 14.8792 20.8445 16.3343 20.8445 18.123C20.8445 19.9116 19.3892 21.3666 17.6006 21.3666Z" fill="#CFAA7C"/>
<path d="M22.7556 11.7314C22.4274 11.7314 22.105 11.8643 21.8732 12.0971C21.6402 12.3288 21.5063 12.6513 21.5063 12.9807C21.5063 13.309 21.6404 13.6314 21.8732 13.8642C22.1048 14.0959 22.4274 14.2299 22.7556 14.2299C23.0849 14.2299 23.4063 14.0959 23.6391 13.8642C23.8719 13.6314 24.0048 13.3089 24.0048 12.9807C24.0048 12.6513 23.8719 12.3288 23.6391 12.0971C23.4075 11.8643 23.0849 11.7314 22.7556 11.7314Z" fill="#CFAA7C"/>
</symbol><symbol id="icon-insta" viewBox="0 0 36 36">
<circle cx="17.6" cy="18.1229" r="17.6" fill="currentColor"/>
<path d="M21.9018 8.52295H13.2988C10.3773 8.52295 8.00049 10.8999 8.00049 13.8214V22.4244C8.00049 25.346 10.3773 27.7228 13.2988 27.7228H21.9018C24.8235 27.7228 27.2004 25.3459 27.2004 22.4244V13.8214C27.2005 10.8999 24.8235 8.52295 21.9018 8.52295ZM25.497 22.4244C25.497 24.4067 23.8842 26.0193 21.9019 26.0193H13.2988C11.3166 26.0194 9.704 24.4067 9.704 22.4244V13.8214C9.704 11.8392 11.3166 10.2265 13.2988 10.2265H21.9018C23.8841 10.2265 25.4969 11.8392 25.4969 13.8214V22.4244H25.497Z" fill="white"/>
<path d="M17.6006 13.1758C14.8726 13.1758 12.6533 15.3951 12.6533 18.1231C12.6533 20.851 14.8726 23.0702 17.6006 23.0702C20.3286 23.0702 22.548 20.851 22.548 18.1231C22.548 15.3951 20.3286 13.1758 17.6006 13.1758ZM17.6006 21.3666C15.8121 21.3666 14.3568 19.9116 14.3568 18.123C14.3568 16.3343 15.812 14.8792 17.6006 14.8792C19.3893 14.8792 20.8445 16.3343 20.8445 18.123C20.8445 19.9116 19.3892 21.3666 17.6006 21.3666Z" fill="white"/>
<path d="M22.7556 11.7314C22.4274 11.7314 22.105 11.8643 21.8732 12.0971C21.6402 12.3288 21.5063 12.6513 21.5063 12.9807C21.5063 13.309 21.6404 13.6314 21.8732 13.8642C22.1048 14.0959 22.4274 14.2299 22.7556 14.2299C23.0849 14.2299 23.4063 14.0959 23.6391 13.8642C23.8719 13.6314 24.0048 13.3089 24.0048 12.9807C24.0048 12.6513 23.8719 12.3288 23.6391 12.0971C23.4075 11.8643 23.0849 11.7314 22.7556 11.7314Z" fill="white"/>
</symbol><symbol id="icon-minus" viewBox="0 0 13 2">
<path d="M1 1H12" stroke="white" stroke-width="2" stroke-linecap="round"/>
</symbol><symbol id="icon-plus-2" viewBox="0 0 12 13">
<path d="M6 12L6 1" stroke="white" stroke-width="2" stroke-linecap="round"/>
<path d="M1 6H11" stroke="white" stroke-width="2" stroke-linecap="round"/>
</symbol><symbol id="icon-plus" viewBox="0 0 16 16">
<path d="M8 16C7.448 16 7 15.552 7 15V1C7 0.447998 7.448 0 8 0C8.552 0 9 0.447998 9 1V15C9 15.552 8.552 16 8 16Z" fill="white"/>
<path d="M15 9H1C0.447998 9 0 8.552 0 8C0 7.448 0.447998 7 1 7H15C15.552 7 16 7.448 16 8C16 8.552 15.552 9 15 9Z" fill="white"/>
</symbol><symbol id="icon-tel" viewBox="0 0 22 23">
<path d="M17.7255 14.0158C16.9713 13.2527 16.0297 13.2527 15.2803 14.0158C14.7086 14.5967 14.1369 15.1776 13.5748 15.7684C13.4211 15.9309 13.2914 15.9654 13.104 15.857C12.7341 15.6503 12.3401 15.4829 11.9846 15.2564C10.3272 14.1881 8.93884 12.8145 7.70898 11.2686C7.09886 10.5006 6.556 9.67838 6.17648 8.75281C6.09961 8.56573 6.11402 8.44265 6.26295 8.29003C6.83464 7.72385 7.39191 7.14291 7.95399 6.56197C8.73706 5.75456 8.73706 4.80929 7.94919 3.99696C7.50241 3.53417 7.05563 3.08124 6.60884 2.61845C6.14765 2.14582 5.69126 1.66827 5.22526 1.20056C4.47102 0.447303 3.52941 0.447303 2.77997 1.20548C2.20348 1.78642 1.65101 2.38214 1.06491 2.95323C0.522042 3.48002 0.248208 4.12496 0.190559 4.87822C0.099281 6.10411 0.392331 7.26107 0.805485 8.38849C1.65101 10.7221 2.93851 12.7948 4.49984 14.6952C6.60884 17.2651 9.1262 19.2984 12.0711 20.7655C13.397 21.4252 14.771 21.9323 16.2651 22.016C17.2932 22.0751 18.1867 21.8092 18.9026 20.9871C19.3926 20.4258 19.945 19.9138 20.4639 19.3772C21.2325 18.5796 21.2373 17.6146 20.4735 16.8269C19.5607 15.8866 18.6431 14.9512 17.7255 14.0158Z" fill="currentColor"/>
</symbol><symbol id="icon-wp" viewBox="0 0 44 44">
<path d="M22 0C9.85159 0 0 9.85159 0 22C0 34.1484 9.85159 44 22 44C34.1484 44 44 34.1484 44 22C44 9.85159 34.1484 0 22 0ZM22.4663 34.8091C22.4659 34.8091 22.4666 34.8091 22.4663 34.8091H22.4609C20.2571 34.808 18.0915 34.2555 16.1683 33.2068L9.18826 35.0373L11.0564 28.216C9.90396 26.22 9.2977 23.9554 9.29871 21.6354C9.30173 14.3777 15.2086 8.47324 22.4663 8.47324C25.9884 8.47458 29.2946 9.84555 31.7804 12.3334C34.2666 14.8215 35.6349 18.1288 35.6335 21.6458C35.6305 28.9039 29.723 34.8091 22.4663 34.8091Z" fill="currentColor"/>
<path d="M22.471 10.6958C16.4342 10.6958 11.5247 15.6033 11.522 21.6357C11.5213 23.7029 12.1 25.7161 13.1954 27.458L13.4556 27.8719L12.3498 31.9093L16.4919 30.823L16.8917 31.06C18.5719 32.057 20.4981 32.5844 22.4619 32.585H22.4663C28.4984 32.585 33.4079 27.6772 33.4106 21.6444C33.4116 18.7209 32.2743 15.9722 30.2081 13.9044C28.1419 11.8365 25.3939 10.6968 22.471 10.6958ZM28.9083 26.3394C28.634 27.1075 27.3197 27.8088 26.6876 27.9034C26.1206 27.988 25.4036 28.0233 24.6154 27.7732C24.1374 27.6215 23.5247 27.419 22.7395 27.0803C19.4393 25.6556 17.2838 22.3336 17.1193 22.1141C16.9549 21.8945 15.7759 20.3305 15.7759 18.7115C15.7759 17.0928 16.6259 16.2968 16.9273 15.9679C17.2291 15.6386 17.5856 15.5563 17.8048 15.5563C18.024 15.5563 18.2436 15.5583 18.4353 15.5677C18.6374 15.5778 18.9086 15.4908 19.1755 16.1324C19.4497 16.791 20.1077 18.4097 20.1899 18.5742C20.2722 18.739 20.3269 18.931 20.2175 19.1506C20.1077 19.3701 19.7431 19.8438 19.395 20.2755C19.249 20.4564 19.0586 20.6176 19.2507 20.9469C19.4423 21.2759 20.103 22.3531 21.0809 23.2252C22.3377 24.3458 23.3978 24.6929 23.7268 24.8577C24.0555 25.0222 24.2475 24.9947 24.4395 24.7755C24.6312 24.5559 25.2619 23.815 25.4812 23.4857C25.7004 23.1564 25.9199 23.2115 26.2214 23.3212C26.5231 23.4307 28.1405 24.2266 28.4695 24.3911C28.7985 24.5559 29.0177 24.6382 29.0999 24.7755C29.1825 24.9128 29.1825 25.571 28.9083 26.3394Z" fill="currentColor"/>
</symbol></svg>