<svg width="22" height="23" viewBox="0 0 22 23" fill="none" xmlns="http://www.w3.org/2000/svg">
<path d="M17.7255 14.0158C16.9713 13.2527 16.0297 13.2527 15.2803 14.0158C14.7086 14.5967 14.1369 15.1776 13.5748 15.7684C13.4211 15.9309 13.2914 15.9654 13.104 15.857C12.7341 15.6503 12.3401 15.4829 11.9846 15.2564C10.3272 14.1881 8.93884 12.8145 7.70898 11.2686C7.09886 10.5006 6.556 9.67838 6.17648 8.75281C6.09961 8.56573 6.11402 8.44265 6.26295 8.29003C6.83464 7.72385 7.39191 7.14291 7.95399 6.56197C8.73706 5.75456 8.73706 4.80929 7.94919 3.99696C7.50241 3.53417 7.05563 3.08124 6.60884 2.61845C6.14765 2.14582 5.69126 1.66827 5.22526 1.20056C4.47102 0.447303 3.52941 0.447303 2.77997 1.20548C2.20348 1.78642 1.65101 2.38214 1.06491 2.95323C0.522042 3.48002 0.248208 4.12496 0.190559 4.87822C0.099281 6.10411 0.392331 7.26107 0.805485 8.38849C1.65101 10.7221 2.93851 12.7948 4.49984 14.6952C6.60884 17.2651 9.1262 19.2984 12.0711 20.7655C13.397 21.4252 14.771 21.9323 16.2651 22.016C17.2932 22.0751 18.1867 21.8092 18.9026 20.9871C19.3926 20.4258 19.945 19.9138 20.4639 19.3772C21.2325 18.5796 21.2373 17.6146 20.4735 16.8269C19.5607 15.8866 18.6431 14.9512 17.7255 14.0158Z" fill="currentColor"/>
</svg>
