<svg width="36" height="36" viewBox="0 0 36 36" fill="none" xmlns="http://www.w3.org/2000/svg">
<circle cx="17.6" cy="18.1229" r="17.6" fill="currentColor"/>
<path d="M21.9018 8.52295H13.2988C10.3773 8.52295 8.00049 10.8999 8.00049 13.8214V22.4244C8.00049 25.346 10.3773 27.7228 13.2988 27.7228H21.9018C24.8235 27.7228 27.2004 25.3459 27.2004 22.4244V13.8214C27.2005 10.8999 24.8235 8.52295 21.9018 8.52295ZM25.497 22.4244C25.497 24.4067 23.8842 26.0193 21.9019 26.0193H13.2988C11.3166 26.0194 9.704 24.4067 9.704 22.4244V13.8214C9.704 11.8392 11.3166 10.2265 13.2988 10.2265H21.9018C23.8841 10.2265 25.4969 11.8392 25.4969 13.8214V22.4244H25.497Z" fill="white"/>
<path d="M17.6006 13.1758C14.8726 13.1758 12.6533 15.3951 12.6533 18.1231C12.6533 20.851 14.8726 23.0702 17.6006 23.0702C20.3286 23.0702 22.548 20.851 22.548 18.1231C22.548 15.3951 20.3286 13.1758 17.6006 13.1758ZM17.6006 21.3666C15.8121 21.3666 14.3568 19.9116 14.3568 18.123C14.3568 16.3343 15.812 14.8792 17.6006 14.8792C19.3893 14.8792 20.8445 16.3343 20.8445 18.123C20.8445 19.9116 19.3892 21.3666 17.6006 21.3666Z" fill="white"/>
<path d="M22.7556 11.7314C22.4274 11.7314 22.105 11.8643 21.8732 12.0971C21.6402 12.3288 21.5063 12.6513 21.5063 12.9807C21.5063 13.309 21.6404 13.6314 21.8732 13.8642C22.1048 14.0959 22.4274 14.2299 22.7556 14.2299C23.0849 14.2299 23.4063 14.0959 23.6391 13.8642C23.8719 13.6314 24.0048 13.3089 24.0048 12.9807C24.0048 12.6513 23.8719 12.3288 23.6391 12.0971C23.4075 11.8643 23.0849 11.7314 22.7556 11.7314Z" fill="white"/>
</svg>
