<svg width="44" height="44" viewBox="0 0 44 44" fill="none" xmlns="http://www.w3.org/2000/svg">
<path d="M22 0C9.85159 0 0 9.85159 0 22C0 34.1484 9.85159 44 22 44C34.1484 44 44 34.1484 44 22C44 9.85159 34.1484 0 22 0ZM22.4663 34.8091C22.4659 34.8091 22.4666 34.8091 22.4663 34.8091H22.4609C20.2571 34.808 18.0915 34.2555 16.1683 33.2068L9.18826 35.0373L11.0564 28.216C9.90396 26.22 9.2977 23.9554 9.29871 21.6354C9.30173 14.3777 15.2086 8.47324 22.4663 8.47324C25.9884 8.47458 29.2946 9.84555 31.7804 12.3334C34.2666 14.8215 35.6349 18.1288 35.6335 21.6458C35.6305 28.9039 29.723 34.8091 22.4663 34.8091Z" fill="currentColor"/>
<path d="M22.471 10.6958C16.4342 10.6958 11.5247 15.6033 11.522 21.6357C11.5213 23.7029 12.1 25.7161 13.1954 27.458L13.4556 27.8719L12.3498 31.9093L16.4919 30.823L16.8917 31.06C18.5719 32.057 20.4981 32.5844 22.4619 32.585H22.4663C28.4984 32.585 33.4079 27.6772 33.4106 21.6444C33.4116 18.7209 32.2743 15.9722 30.2081 13.9044C28.1419 11.8365 25.3939 10.6968 22.471 10.6958ZM28.9083 26.3394C28.634 27.1075 27.3197 27.8088 26.6876 27.9034C26.1206 27.988 25.4036 28.0233 24.6154 27.7732C24.1374 27.6215 23.5247 27.419 22.7395 27.0803C19.4393 25.6556 17.2838 22.3336 17.1193 22.1141C16.9549 21.8945 15.7759 20.3305 15.7759 18.7115C15.7759 17.0928 16.6259 16.2968 16.9273 15.9679C17.2291 15.6386 17.5856 15.5563 17.8048 15.5563C18.024 15.5563 18.2436 15.5583 18.4353 15.5677C18.6374 15.5778 18.9086 15.4908 19.1755 16.1324C19.4497 16.791 20.1077 18.4097 20.1899 18.5742C20.2722 18.739 20.3269 18.931 20.2175 19.1506C20.1077 19.3701 19.7431 19.8438 19.395 20.2755C19.249 20.4564 19.0586 20.6176 19.2507 20.9469C19.4423 21.2759 20.103 22.3531 21.0809 23.2252C22.3377 24.3458 23.3978 24.6929 23.7268 24.8577C24.0555 25.0222 24.2475 24.9947 24.4395 24.7755C24.6312 24.5559 25.2619 23.815 25.4812 23.4857C25.7004 23.1564 25.9199 23.2115 26.2214 23.3212C26.5231 23.4307 28.1405 24.2266 28.4695 24.3911C28.7985 24.5559 29.0177 24.6382 29.0999 24.7755C29.1825 24.9128 29.1825 25.571 28.9083 26.3394Z" fill="currentColor"/>
</svg>
