<svg width="23" height="23" viewBox="0 0 23 23" fill="none" xmlns="http://www.w3.org/2000/svg">
<path d="M6.9 18.4C5.635 18.4 4.6 19.435 4.6 20.7C4.6 21.965 5.635 23 6.9 23C8.165 23 9.2 21.965 9.2 20.7C9.2 19.435 8.165 18.4 6.9 18.4ZM0 0V2.3H2.3L6.44 11.04L4.83 13.8C4.715 14.145 4.6 14.605 4.6 14.95C4.6 16.215 5.635 17.25 6.9 17.25H20.7V14.95H7.36C7.245 14.95 7.13 14.835 7.13 14.72V14.605L8.165 12.65H16.675C17.595 12.65 18.285 12.19 18.63 11.5L22.77 4.025C23 3.795 23 3.68 23 3.45C23 2.76 22.54 2.3 21.85 2.3H4.83L3.795 0H0ZM18.4 18.4C17.135 18.4 16.1 19.435 16.1 20.7C16.1 21.965 17.135 23 18.4 23C19.665 23 20.7 21.965 20.7 20.7C20.7 19.435 19.665 18.4 18.4 18.4Z" fill="currentColor"/>
</svg>
